<svg width="1340" height="1636" viewBox="0 0 1340 1636" fill="none" xmlns="http://www.w3.org/2000/svg">
<path d="M-392.413 0.976562C-359.931 11.8047 -359.931 11.8047 -349.653 30.6693C-347.015 38.2905 -344.377 45.9116 -341.659 53.7637C-337.576 65.1116 -337.576 65.1116 -333.411 76.6888C-327.448 98.4297 -327.448 98.4297 -327.448 130.914C-320.302 130.914 -313.155 130.914 -305.793 130.914C-301.773 121.199 -301.773 121.199 -297.672 111.288C-275.738 72.9015 -249.706 58.0771 -208.344 44.2891C-142.257 37.6287 -95.1345 46.7562 -35.103 76.7734C24.2419 105.908 62.4019 114.493 127.311 109.258C156.954 99.2152 156.954 99.2152 181.449 87.6016C192.168 87.6016 202.887 87.6016 213.932 87.6016C242.96 125.564 251.776 159.7 257.242 206.711C278.68 195.991 300.119 185.271 322.208 174.227C317.008 202.303 311.07 217.956 293.785 241.226C275.5 278.629 273.989 302.186 279.785 343.035C296.541 387.03 329.376 413.844 364.122 444.464C392.706 471.896 406.92 492.761 411.323 532.316C410.031 594.117 410.031 594.117 398 618.18C460.058 619.857 515.951 614.416 576.656 601.938C584.528 600.388 592.4 598.839 600.51 597.242C619.642 593.466 638.755 589.591 657.863 585.695C654.808 568.081 651.626 550.49 648.388 532.908C646.63 523.11 644.871 513.311 643.059 503.215C638.043 475.627 638.043 475.627 614.552 455.758C576.656 452.148 576.656 452.148 538.759 455.758C528.04 466.478 528.04 466.478 517.104 477.414C517.104 491.707 517.104 506 517.104 520.727C549.262 531.446 549.262 531.446 582.07 542.383C578.496 553.103 574.923 563.823 571.242 574.867C528.326 578.233 502.061 578.384 463.643 557.948C441.311 531.555 441.311 531.555 437.927 490.949C439.044 479.336 440.16 467.723 441.311 455.758C409.153 450.398 409.153 450.398 376.345 444.93C368.901 420.566 368.901 420.566 365.518 390.789C381.083 365.749 381.083 365.749 398 347.477C389.291 339.883 380.582 332.29 371.608 324.467C340.512 289.577 333.977 274.501 333.035 228.367C343.186 191.822 343.186 191.822 354.69 163.398C365.409 163.398 376.129 163.398 387.173 163.398C391.193 174.788 395.212 186.178 399.354 197.913C425.069 256.008 460.282 283.6 518.246 306.786C530.598 311.281 542.951 315.776 555.677 320.406C610.825 340.484 644.336 354.706 679.518 401.617C685.994 409.88 692.47 418.144 699.143 426.657C717.245 467.628 714.929 497.718 712 542.383C708.427 549.529 704.854 556.676 701.173 564.039C712.332 558.177 712.332 558.177 723.716 552.196C738.351 544.658 738.351 544.658 753.281 536.969C762.953 531.944 772.626 526.919 782.591 521.742C809.449 509.898 809.449 509.898 841.932 509.898C835.532 562.378 820.499 603.101 798.621 650.664C811.574 648.207 824.526 645.751 837.871 643.22C885.046 637.655 910.357 644.597 950.208 672.32C999.195 714.168 1020.49 758.771 1041.57 819.177C1070.99 901.752 1110.96 938.387 1188.41 975.508C1188.41 986.228 1188.41 996.948 1188.41 1007.99C1101.83 1023.65 1101.83 1023.65 1060.51 1005.29C1052.7 999.032 1044.88 992.779 1036.83 986.336C1028.57 980.306 1020.3 974.276 1011.79 968.063C1005.76 963.374 999.73 958.684 993.518 953.852C989.945 964.571 986.372 975.291 982.69 986.336C951.561 988.366 951.561 988.366 917.725 986.336C896.07 953.852 896.07 953.852 896.07 910.539C884.457 911.656 872.844 912.772 860.88 913.923C820.276 910.539 820.276 910.539 793.884 887.529C774.501 851.862 772.522 831.43 776.966 791.43C780.539 784.283 784.112 777.137 787.794 769.773C798.513 773.347 809.232 776.92 820.276 780.602C823.85 798.468 827.423 816.334 831.104 834.742C857.266 837.453 857.266 837.453 885.242 834.742C910.036 804.258 910.036 804.258 906.22 769.773C898.85 735.875 898.85 735.875 871.708 716.986C840.957 704.406 820.627 701.99 787.794 704.805C747.254 785.888 731.5 874.142 733.656 964.68C739.015 960.883 744.375 957.086 749.897 953.175C790.855 937.815 823.388 938.363 863.587 953.852C892.796 976.616 918.786 1000.93 944.878 1027.2C974.191 1053.39 1000.36 1069.23 1036.83 1083.79C1080.44 1075.66 1108.2 1065.08 1145.1 1040.48C1155.82 1040.48 1166.54 1040.48 1177.59 1040.48C1170.44 1061.92 1163.29 1083.36 1155.93 1105.45C1170.22 1109.02 1184.52 1112.59 1199.24 1116.27C1199.24 1126.99 1199.24 1137.71 1199.24 1148.76C1192.58 1150.6 1185.93 1152.44 1179.07 1154.34C1165.94 1158.28 1165.94 1158.28 1152.55 1162.29C1143.88 1164.81 1135.21 1167.32 1126.28 1169.91C1095.73 1184.05 1085.21 1194.85 1069.31 1224.55C1063.84 1260.26 1063.84 1260.26 1063.22 1299C1061.14 1357.45 1057.93 1411.97 1022.62 1460.74C999.21 1477.22 978.307 1480.63 950.208 1484.43C983.963 1531.74 1020.48 1560.51 1068.63 1591.36C1075.22 1595.85 1081.8 1600.35 1088.58 1604.98C1119.28 1624.85 1139.01 1636.31 1176.06 1634.54C1200.26 1627.04 1200.26 1627.04 1213.45 1606.92C1224.94 1568.27 1228.38 1531.89 1210.07 1495.26C1165.74 1483.48 1165.74 1483.48 1123.45 1495.26C1128.71 1529.07 1134.26 1560.18 1145.1 1592.71C1077.79 1569.06 1077.79 1569.06 1058.48 1538.57C1054.85 1505.91 1052.48 1483.37 1058.48 1451.95C1080.14 1424.88 1080.14 1424.88 1101.79 1408.63C1085.71 1381.83 1085.71 1381.83 1069.31 1354.49C1082.17 1332.84 1082.17 1332.84 1101.79 1311.18C1130.89 1308.47 1130.89 1308.47 1155.93 1311.18C1154.81 1298.23 1153.7 1285.27 1152.55 1271.93C1152.55 1236.03 1157.47 1215.78 1179.62 1187.33C1210.06 1159.6 1223.84 1151.06 1264.21 1148.76C1262.64 1157.69 1261.08 1166.62 1259.47 1175.83C1257.46 1188.33 1255.45 1200.84 1253.38 1213.73C1250.48 1227.35 1247.57 1240.97 1244.58 1255.01C1237.76 1310.11 1261.43 1349.78 1285.86 1397.8C1316.28 1461.32 1326.58 1512.67 1307.52 1581.88C1285.32 1622.59 1270.28 1642.8 1231.72 1668.51C1267.46 1686.37 1303.19 1704.24 1340 1722.65C1340 1733.37 1340 1744.09 1340 1755.13C1286.4 1776.57 1286.4 1776.57 1231.72 1798.45C1244.01 1810.51 1256.29 1822.56 1268.94 1834.99C1306.33 1877.92 1318.72 1910.14 1320.63 1966.75C1316.05 2020.09 1297.2 2062.54 1268.27 2107.05C1241.96 2154.89 1237.47 2198.03 1249.19 2250.39C1257.11 2276.91 1265.6 2303.01 1275.03 2329.02C1222.54 2321.27 1202.34 2303.59 1166.76 2264.05C1163.19 2260.48 1159.61 2256.91 1155.93 2253.23C1155.15 2236.78 1155.02 2220.29 1155.25 2203.82C1155.35 2194.88 1155.45 2185.93 1155.55 2176.71C1155.74 2166.35 1155.74 2166.35 1155.93 2155.77C1149.29 2157.99 1142.64 2160.21 1135.8 2162.5C1128.15 2163.85 1120.5 2165.21 1112.62 2166.6C1088.26 2145.62 1088.26 2145.62 1069.31 2123.29C1089.61 2071.86 1089.61 2071.86 1101.79 2047.49C1087.5 2040.35 1073.21 2033.2 1058.48 2025.84C1051.87 1947.79 1051.87 1947.79 1083.52 1906.73C1112.62 1885.07 1112.62 1885.07 1145.1 1885.07C1141.31 1893.11 1137.51 1901.15 1133.6 1909.43C1122.96 1940.64 1123.09 1952.33 1134.28 1982.52C1165.85 1985.23 1165.85 1985.23 1199.24 1982.52C1224.42 1944.75 1224.52 1929.45 1220.9 1885.07C1213.41 1860.13 1213.41 1860.13 1199.24 1841.76C1165.72 1826.7 1165.72 1826.7 1129.54 1845.82C1064.76 1879.96 1007.76 1926.8 950.208 1971.7C960.522 1976.61 970.836 1981.52 981.464 1986.58C1027.06 2010.38 1042.43 2031.82 1058.48 2079.98C1059.89 2116.15 1061.17 2152.26 1061.23 2188.47C1062.73 2230.69 1067.78 2251.26 1093.97 2284.91C1133.62 2315.11 1161.65 2320 1210.07 2329.02C1188.41 2361.51 1188.41 2361.51 1165.41 2368.95C1158.71 2370.07 1152.01 2371.19 1145.1 2372.34C1155.82 2386.63 1166.54 2400.92 1177.59 2415.65C1174.01 2422.79 1170.44 2429.94 1166.76 2437.3C1161.26 2434.18 1155.76 2431.05 1150.09 2427.83C1086.22 2392.99 1086.22 2392.99 1015.17 2393.99C976.031 2417.46 942.045 2446.6 908.462 2477.36C869.597 2512.8 843.188 2535.94 787.794 2534.76C765.902 2524.42 744.21 2513.63 722.828 2502.27C727.751 2531.16 732.72 2560.03 737.716 2588.9C739.084 2596.95 740.452 2605.01 741.861 2613.3C751.246 2667.27 763.114 2719.97 776.966 2772.98C844.526 2764.5 844.526 2764.5 898.1 2726.28C909.378 2697.29 909.378 2697.29 900.807 2667.4C887.532 2641.3 887.532 2641.3 862.233 2634.24C855.534 2633.57 848.834 2632.9 841.932 2632.21C834.785 2653.65 827.639 2675.09 820.276 2697.18C805.984 2693.61 791.692 2690.03 776.966 2686.35C771.746 2618.49 771.746 2618.49 793.884 2584.84C827.623 2562.34 856.058 2559.49 896.07 2556.41C896.74 2547.93 897.409 2539.44 898.1 2530.7C906.897 2502.27 906.897 2502.27 931.259 2486.03C961.035 2480.62 961.035 2480.62 991.488 2495.51C999.304 2501.31 1007.12 2507.12 1015.17 2513.1C1021.87 2504.17 1028.57 2495.24 1035.47 2486.03C1056.09 2464.99 1066.7 2459.35 1096.25 2454.98C1169.21 2454.77 1169.21 2454.77 1199.24 2469.79C1188.41 2502.27 1188.41 2502.27 1169.93 2512.64C1162.41 2515.69 1154.89 2518.75 1147.13 2521.9C1075.95 2556.1 1058.72 2609.28 1033.44 2680.94C1007.21 2752.32 974.768 2793.18 906.897 2827.12C890.22 2827.87 873.512 2828.03 856.82 2827.79C847.97 2827.7 839.122 2827.6 830.004 2827.5C819.829 2827.31 819.829 2827.31 809.449 2827.12C814.473 2841.19 814.473 2841.19 819.6 2855.54C830.291 2889.5 836.906 2921.87 841.932 2957.05C796.513 2950.57 755.203 2940 712 2924.57C712.503 2930.85 713.005 2937.13 713.523 2943.6C716.36 3005 710.271 3038.67 668.69 3086.99C629.438 3122.34 594.041 3139.86 544.173 3156.7C473.345 3182.92 436.732 3207.38 400.031 3274.45C395.788 3284.06 391.545 3293.66 387.173 3303.55C372.881 3299.98 358.588 3296.41 343.863 3292.73C335.56 3199.36 335.56 3199.36 355.917 3162.79C370.932 3145.19 370.932 3145.19 398 3119.48C392.417 3115.23 386.834 3110.99 381.083 3106.62C365.518 3086.99 365.518 3086.99 367.548 3059.25C376.345 3032.85 376.345 3032.85 398 3011.2C412.293 3011.2 426.585 3011.2 441.311 3011.2C439.971 2999.58 438.631 2987.97 437.25 2976C441.311 2935.4 441.311 2935.4 469.733 2909C508.059 2891.26 529.684 2885.47 571.242 2892.09C581.961 2908.17 581.961 2908.17 592.897 2924.57C567.885 2935.29 542.874 2946.01 517.104 2957.05C520.094 2978.07 520.094 2978.07 527.932 3000.37C558.515 3025.36 558.515 3025.36 593.574 3020.67C625.489 3014.32 625.489 3014.32 640.268 2993.6C649.3 2959.28 648.393 2927.4 647.035 2892.09C560.443 2864.49 477.854 2852.95 387.173 2848.77C397.892 2864.85 397.892 2864.85 408.828 2881.26C415.779 2917.28 418.533 2933.57 408.828 2967.88C386.542 2997.93 362.353 3023.84 335.869 3050.24C300.255 3087.94 280.634 3116.41 274.16 3168.2C279.666 3212.25 292.217 3228.43 322.208 3260.24C325.781 3267.39 329.354 3274.54 333.035 3281.9C325.889 3289.04 318.743 3296.19 311.38 3303.55C293.514 3289.26 275.649 3274.97 257.242 3260.24C253.669 3278.11 250.096 3295.98 246.414 3314.38C226.789 3308.97 226.789 3308.97 203.104 3292.73C193.727 3270.92 186.819 3249.26 180.434 3226.4C167.388 3199.41 154.677 3195.79 127.311 3184.45C105.276 3180.29 105.276 3180.29 82.3511 3179.12C73.9417 3178.4 65.5322 3177.69 56.8682 3176.96C39.3638 3175.64 21.8533 3174.4 4.3374 3173.24C-49.9307 3168.47 -83.2257 3161.41 -121.724 3119.48C-135.935 3089.7 -135.935 3089.7 -143.379 3065.34C-233.546 3164.56 -233.546 3164.56 -276.017 3286.64C-275.123 3295.79 -274.23 3304.95 -273.31 3314.38C-233.977 3339.56 -200.115 3340.29 -154.206 3336.04C-130.906 3301.09 -130.376 3289.65 -132.551 3249.41C-173.857 3233.53 -200.658 3244.72 -240.827 3260.24C-227.221 3218.29 -215.795 3194.12 -175.862 3173.62C-109.14 3166.59 -109.14 3166.59 -79.09 3189.86C-75.2936 3195.22 -71.4972 3200.58 -67.5857 3206.1C-57.7596 3202.08 -47.9336 3198.06 -37.8098 3193.92C-2.62012 3184.45 -2.62012 3184.45 22.4187 3191.21C40.6902 3206.1 40.6902 3206.1 49.4875 3227.76C51.5178 3249.41 51.5178 3249.41 40.6902 3271.07C53.4194 3269.73 66.1484 3268.39 79.2634 3267.01C128.805 3266.83 152.651 3285.25 188.512 3317.6C204.749 3338.12 209.541 3353.78 213.932 3379.35C203.882 3377.56 193.833 3375.78 183.479 3373.94C88.1343 3361.25 22.0198 3362.44 -63.187 3409.76C-119.583 3437.69 -173.755 3440.49 -233.383 3421.31C-272.148 3404.67 -293.492 3382.53 -316.62 3346.87C-330.913 3386.17 -345.205 3425.48 -359.931 3465.98C-374.223 3462.4 -388.515 3458.83 -403.241 3455.15C-414.576 3430.4 -414.576 3430.4 -422.189 3400.33C-424.813 3390.38 -427.437 3380.43 -430.141 3370.17C-431.983 3362.48 -433.825 3354.79 -435.724 3346.87C-442.87 3346.87 -450.016 3346.87 -457.379 3346.87C-459.835 3353.34 -462.292 3359.82 -464.823 3366.49C-486.965 3403.4 -513.066 3416.52 -553.812 3428.97C-639.006 3445.48 -707.595 3405.83 -782.206 3368.52C-803.163 3367.47 -824.158 3367.12 -845.142 3367.17C-861.995 3367.13 -861.995 3367.13 -879.189 3367.09C-909.468 3368.41 -936.818 3372.49 -966.275 3379.35C-966.275 3386.5 -966.275 3393.64 -966.275 3401.01C-973.422 3397.43 -980.568 3393.86 -987.931 3390.18C-929.145 3288.75 -929.145 3288.75 -890.482 3271.07C-861.039 3268.63 -833.517 3269.59 -803.862 3271.07C-803.862 3249.63 -803.862 3228.19 -803.862 3206.1C-767.318 3199.33 -767.318 3199.33 -728.068 3195.27C-720.922 3202.42 -713.776 3209.57 -706.413 3216.93C-700.83 3209.78 -695.247 3202.64 -689.495 3195.27C-663.103 3173.62 -663.103 3173.62 -625.883 3168.2C-571.857 3175.79 -548.843 3201.26 -511.517 3238.59C-507.944 3249.31 -504.37 3260.03 -500.689 3271.07C-510.292 3267.72 -519.895 3264.37 -529.788 3260.92C-559.885 3251.26 -588.732 3244.07 -619.793 3238.59C-628.559 3270.15 -632.986 3286.89 -620.469 3317.77C-616.673 3323.8 -612.876 3329.83 -608.965 3336.04C-554.583 3339.24 -523.477 3335.88 -479.034 3303.55C-485.218 3258.04 -500.646 3228.1 -525.728 3189.86C-532.162 3179.92 -538.597 3169.98 -545.226 3159.74C-580.584 3104.66 -580.584 3104.66 -630.62 3065.34C-631.29 3073.38 -631.96 3081.42 -632.65 3089.7C-644.755 3130.67 -659.292 3140.27 -695.586 3162.79C-738.909 3171.8 -782.925 3172.78 -827.018 3175.06C-881.258 3178.6 -881.258 3178.6 -928.294 3203.94C-944.203 3227.15 -953.53 3246.25 -961.538 3273.1C-968.348 3295.9 -968.348 3295.9 -977.103 3314.38C-987.822 3317.96 -998.542 3321.53 -1009.59 3325.21C-1009.59 3303.77 -1009.59 3282.33 -1009.59 3260.24C-1047.1 3281.68 -1047.1 3281.68 -1085.38 3303.55C-1085.38 3271.07 -1085.38 3271.07 -1063.72 3247.38C-1040.55 3214.8 -1034.41 3193.22 -1036.44 3153.19C-1047.38 3108.68 -1077.34 3077.42 -1107.03 3043.68C-1117.21 3031.52 -1127.36 3019.34 -1137.49 3007.13C-1145.3 2997.75 -1153.12 2988.38 -1161.17 2978.71C-1177.51 2946.02 -1173.9 2917.28 -1172 2881.26C-1164.85 2870.54 -1157.71 2859.82 -1150.34 2848.77C-1242.82 2854.25 -1330.88 2871.16 -1421.03 2892.09C-1411.78 2956.89 -1411.78 2956.89 -1380.43 3012.55C-1347.47 3025.37 -1324.87 3019.64 -1291.1 3011.2C-1287.53 2993.33 -1283.96 2975.46 -1280.28 2957.05C-1301.71 2949.91 -1323.15 2942.76 -1345.24 2935.4C-1345.24 2924.68 -1345.24 2913.96 -1345.24 2902.91C-1299.44 2891.92 -1275.98 2889.24 -1232.23 2908.33C-1204.48 2935.4 -1204.48 2935.4 -1200.42 2976C-1202.43 2993.42 -1202.43 2993.42 -1204.48 3011.2C-1196 3012.54 -1187.51 3013.88 -1178.77 3015.26C-1150.34 3022.02 -1150.34 3022.02 -1128.69 3043.68C-1127.34 3072.1 -1127.34 3072.1 -1128.69 3097.82C-1135.84 3101.39 -1142.98 3104.97 -1150.34 3108.65C-1138.56 3133.12 -1126.47 3155.2 -1111.09 3177.68C-1093.21 3211.82 -1092.07 3233 -1096.21 3271.07C-1103.35 3281.79 -1110.5 3292.51 -1117.86 3303.55C-1128.58 3303.55 -1139.3 3303.55 -1150.34 3303.55C-1152.72 3297.8 -1155.09 3292.05 -1157.53 3286.13C-1199.22 3193.27 -1265.26 3169.03 -1357.13 3134.03C-1417.24 3106.19 -1451.94 3073.55 -1475.17 3011.2C-1479.63 2944.32 -1479.63 2944.32 -1464.34 2913.74C-1510.79 2931.61 -1557.24 2949.48 -1605.1 2967.88C-1599.72 2914.03 -1588.29 2874.35 -1561.79 2827.12C-1568.6 2827.87 -1575.42 2828.62 -1582.43 2829.4C-1648.09 2833.55 -1688.05 2825.87 -1738.54 2782.66C-1769.6 2747.55 -1783.68 2708.09 -1800 2664.7C-1829.38 2595.94 -1850.71 2547.3 -1919.1 2513.1C-1929.82 2509.53 -1940.54 2505.96 -1951.59 2502.27C-1951.59 2491.55 -1951.59 2480.83 -1951.59 2469.79C-1907.4 2447.7 -1879.93 2444.44 -1832.48 2458.96C-1808.68 2475.44 -1788.84 2493.3 -1767.52 2513.1C-1758.47 2504.39 -1758.47 2504.39 -1749.25 2495.51C-1724.21 2480.62 -1724.21 2480.62 -1695.11 2486.03C-1670.07 2502.27 -1670.07 2502.27 -1661.27 2530.7C-1660.6 2539.18 -1659.93 2547.67 -1659.24 2556.41C-1644.84 2554.74 -1644.84 2554.74 -1630.14 2553.03C-1594.28 2556.41 -1594.28 2556.41 -1563.15 2578.75C-1535.04 2617.6 -1535.54 2639.44 -1540.14 2686.35C-1550.86 2689.92 -1561.58 2693.5 -1572.62 2697.18C-1583.34 2675.74 -1594.06 2654.3 -1605.1 2632.21C-1626.41 2632.55 -1626.41 2632.55 -1648.41 2643.04C-1662.54 2675.48 -1662.54 2675.48 -1670.07 2708.01C-1647.76 2736.66 -1647.76 2736.66 -1615.93 2762.15C-1575.76 2766.68 -1575.76 2766.68 -1540.14 2762.15C-1514.33 2676.3 -1498 2591.07 -1486 2502.27C-1502.41 2510.98 -1502.41 2510.98 -1519.16 2519.87C-1553.68 2534.02 -1579.66 2539.03 -1616.27 2526.21C-1657.74 2500.7 -1689.64 2464.12 -1722.73 2428.8C-1751.65 2398.82 -1760.39 2394.69 -1802.03 2390.61C-1852.94 2394.78 -1875.98 2411.09 -1919.1 2437.3C-1926.25 2433.73 -1933.4 2430.16 -1940.76 2426.48C-1930.04 2408.61 -1919.32 2390.74 -1908.28 2372.34C-1926.14 2365.19 -1944.01 2358.04 -1962.41 2350.68C-1962.41 2343.53 -1962.41 2336.39 -1962.41 2329.02C-1955.76 2327.18 -1949.1 2325.34 -1942.24 2323.44C-1887.85 2307.93 -1887.85 2307.93 -1843.31 2274.88C-1817.03 2222.32 -1819.01 2169.66 -1818.91 2112.25C-1817.41 2069.98 -1812.57 2049.68 -1785.96 2016.28C-1761.97 1997.49 -1741.44 1983.13 -1713.38 1971.7C-1828.14 1868.62 -1828.14 1868.62 -1973.24 1841.76C-1975.66 1857.07 -1977.88 1872.42 -1980.01 1887.78C-1981.26 1896.32 -1982.52 1904.86 -1983.81 1913.66C-1984.1 1942.69 -1977.2 1957.91 -1962.41 1982.52C-1937.4 1982.52 -1912.39 1982.52 -1886.62 1982.52C-1884.81 1956.36 -1884.81 1956.36 -1886.62 1928.38C-1893.77 1921.24 -1900.91 1914.09 -1908.28 1906.73C-1904.7 1896.01 -1901.13 1885.29 -1897.45 1874.24C-1868.98 1890.72 -1845 1905.03 -1821.65 1928.38C-1819.54 1951.82 -1819.54 1951.82 -1820.3 1978.46C-1820.5 1987.31 -1820.69 1996.16 -1820.89 2005.28C-1821.14 2012.06 -1821.4 2018.85 -1821.65 2025.84C-1843.09 2036.56 -1843.09 2036.56 -1864.96 2047.49C-1859.38 2053.52 -1853.8 2059.55 -1848.05 2065.76C-1832.48 2090.8 -1832.48 2090.8 -1833.16 2119.23C-1843.31 2144.95 -1843.31 2144.95 -1863.61 2159.83C-1886.62 2166.6 -1886.62 2166.6 -1919.1 2155.77C-1917.97 2166.56 -1917.97 2166.56 -1916.82 2177.56C-1912.14 2253.9 -1912.14 2253.9 -1932.05 2282.92C-1960.72 2307.27 -1989.75 2324.68 -2027.38 2329.02C-2025.82 2320.09 -2024.25 2311.16 -2022.64 2301.95C-2020.63 2289.45 -2018.62 2276.94 -2016.55 2264.05C-2013.65 2250.65 -2010.74 2237.26 -2007.75 2223.45C-2000.62 2165.93 -2025.4 2120.35 -2049.03 2069.15C-2078.02 2005.59 -2087.41 1965.03 -2070.69 1895.9C-2048.63 1856.93 -2026.62 1830.17 -1994.9 1798.45C-2030.63 1784.15 -2066.36 1769.86 -2103.17 1755.13C-2103.17 1744.41 -2103.17 1733.69 -2103.17 1722.65C-2087.4 1715.38 -2071.61 1708.17 -2055.8 1700.99C-2047.01 1696.97 -2038.21 1692.95 -2029.16 1688.81C-2005.72 1679.34 -2005.72 1679.34 -1984.07 1679.34C-1984.07 1672.19 -1984.07 1665.04 -1984.07 1657.68C-1990.54 1654.78 -1997.02 1651.87 -2003.69 1648.88C-2041.57 1628.32 -2056.98 1612.2 -2070.69 1571.05C-2080.75 1497.98 -2070.9 1446.02 -2037.53 1380.21C-2006.12 1318.05 -1999.39 1280.49 -2016.55 1213.73C-2018.56 1201 -2020.57 1188.27 -2022.64 1175.15C-2024.2 1166.44 -2025.77 1157.73 -2027.38 1148.76C-1991.08 1151.87 -1972.81 1159.89 -1942.79 1181.24C-1910.78 1225.15 -1913.95 1258.62 -1919.1 1311.18C-1881.59 1316.54 -1881.59 1316.54 -1843.31 1322.01C-1834.54 1353.57 -1830.12 1370.31 -1842.63 1401.19C-1846.43 1407.22 -1850.23 1413.25 -1854.14 1419.46C-1846.77 1427.05 -1839.4 1434.65 -1831.81 1442.47C-1810.83 1473.6 -1810.83 1473.6 -1810.83 1506.76C-1823.05 1542.68 -1835.44 1558.44 -1864.96 1581.88C-1875.68 1585.46 -1886.4 1589.03 -1897.45 1592.71C-1897.45 1553.62 -1887.04 1521.7 -1875.79 1484.43C-1913.9 1480.97 -1934.48 1480.4 -1967.15 1501.35C-1987.72 1527.94 -1987.72 1527.94 -1982.71 1566.32C-1975.19 1604.52 -1975.19 1604.52 -1951.59 1636.02C-1856.56 1625.39 -1775.63 1566.1 -1713.38 1495.26C-1723.43 1490.79 -1733.48 1486.32 -1743.83 1481.72C-1779.11 1462.35 -1791.39 1453.72 -1810.83 1419.46C-1815.23 1382.37 -1815.23 1382.37 -1816.24 1340.28C-1818.53 1255.53 -1818.53 1255.53 -1854.14 1181.24C-1889.08 1162.53 -1924.52 1149.38 -1962.41 1137.93C-1962.41 1130.78 -1962.41 1123.64 -1962.41 1116.27C-1935.61 1105.55 -1935.61 1105.55 -1908.28 1094.62C-1922.57 1080.32 -1936.86 1066.03 -1951.59 1051.3C-1932.64 1043.86 -1932.64 1043.86 -1908.28 1040.48C-1902.25 1045.61 -1896.22 1050.75 -1890 1056.04C-1856.91 1078.41 -1832.7 1080.14 -1793.23 1078.97C-1744.8 1067.66 -1714.56 1031.95 -1680.9 997.164C-1639.08 956.421 -1608.36 947.728 -1551.9 941.755C-1529.31 943.023 -1529.31 943.023 -1496.83 964.68C-1495.23 910.643 -1500.48 863.063 -1512.39 810.379C-1515.28 797.37 -1518.17 784.361 -1521.15 770.958C-1528.83 737.221 -1528.83 737.221 -1540.14 704.805C-1584.85 702.725 -1620.64 702.196 -1659.24 726.461C-1671.19 765.709 -1672.68 795.921 -1659.24 834.742C-1637.8 834.742 -1616.36 834.742 -1594.28 834.742C-1590.7 813.302 -1587.13 791.863 -1583.45 769.773C-1569.16 773.347 -1554.86 776.92 -1540.14 780.602C-1534.87 859.618 -1534.87 859.618 -1558.41 893.62C-1585.85 912.165 -1604.68 918.769 -1637.59 921.367C-1648.3 916.007 -1648.3 916.007 -1659.24 910.539C-1658.79 919.026 -1658.35 927.512 -1657.89 936.256C-1659.24 964.68 -1659.24 964.68 -1680.9 986.336C-1720.07 990.459 -1744.61 984.674 -1778.34 964.68C-1786.83 971.603 -1795.32 978.526 -1804.06 985.659C-1848.5 1020.58 -1873.52 1020.84 -1929.93 1018.82C-1937.08 1015.25 -1944.22 1011.67 -1951.59 1007.99C-1951.59 997.272 -1951.59 986.552 -1951.59 975.508C-1941.79 971.153 -1941.79 971.153 -1931.79 966.71C-1864.42 933.672 -1836.1 904.824 -1810.83 834.742C-1807.83 825.837 -1804.83 816.932 -1801.73 807.756C-1776.69 737.043 -1745.95 690.43 -1680.9 650.664C-1633.01 637.895 -1610 638.611 -1561.79 650.664C-1579.66 604.211 -1597.52 557.759 -1615.93 509.898C-1558.95 519.396 -1525.72 529.956 -1475.17 553.211C-1475.67 547.055 -1476.18 540.9 -1476.69 534.558C-1479.04 484.453 -1478.13 441.188 -1449.75 397.557C-1403.03 351.605 -1335.02 326.694 -1274.06 305.137C-1200.01 278.108 -1173.42 233.073 -1139.52 163.398C-1128.8 166.972 -1118.08 170.545 -1107.03 174.227C-1092.43 252.548 -1092.43 252.548 -1109.74 290.629C-1119.12 302.689 -1119.12 302.689 -1128.69 314.992C-1134.72 323.255 -1140.75 331.519 -1146.96 340.032C-1151.65 346.062 -1156.34 352.092 -1161.17 358.305C-1145.09 369.025 -1145.09 369.025 -1128.69 379.961C-1125.31 407.031 -1125.31 407.031 -1128.69 434.102C-1150.34 455.758 -1150.34 455.758 -1178.77 457.111C-1187.25 456.665 -1195.74 456.218 -1204.48 455.758C-1203.37 467.371 -1202.25 478.984 -1201.1 490.949C-1204.48 531.555 -1204.48 531.555 -1226.14 557.948C-1269.36 580.464 -1296.96 578.141 -1345.24 574.867C-1348.81 564.147 -1352.39 553.427 -1356.07 542.383C-1331.06 535.236 -1306.04 528.09 -1280.28 520.727C-1280.28 499.287 -1280.28 477.847 -1280.28 455.758C-1337.54 450.133 -1337.54 450.133 -1387.87 470.646C-1411.5 506.777 -1411.14 531.954 -1410.21 574.867C-1323.72 601.661 -1241.1 624.826 -1150.34 629.008C-1153.79 622.587 -1157.24 616.166 -1160.79 609.551C-1178.06 572.792 -1178.05 550.217 -1172 509.898C-1145.47 471.372 -1112.31 439.176 -1079.12 406.397C-1050.13 375.654 -1042.03 358.033 -1035.98 315.669C-1038.75 267.527 -1060.37 236.225 -1085.38 195.883C-1081.81 188.736 -1078.23 181.59 -1074.55 174.227C-1056.69 184.946 -1038.82 195.666 -1020.41 206.711C-1013.27 192.418 -1006.12 178.125 -998.758 163.398C-988.039 166.972 -977.319 170.545 -966.275 174.227C-957.267 195.486 -951.909 216.782 -946.1 239.111C-927.095 272.683 -904.413 279.903 -868.827 293.336C-827.712 297.509 -787.308 298.078 -746.002 298.708C-700.16 305.026 -676.707 317.915 -641.448 347.477C-631.974 382.668 -631.974 382.668 -630.62 412.445C-568.516 355.984 -512.238 284.246 -479.034 206.711C-479.858 183.56 -479.858 183.56 -489.862 163.398C-534.085 133.915 -556.407 137.571 -608.965 141.742C-633.762 178.939 -632.552 195.724 -630.62 239.195C-598.462 232.049 -566.304 224.902 -533.172 217.539C-529.599 224.686 -526.026 231.832 -522.344 239.195C-568.113 290.197 -568.113 290.197 -603.551 303.487C-636.102 304.301 -655.917 297.319 -684.758 282.508C-695.477 271.788 -695.477 271.788 -706.413 260.852C-713.559 267.998 -720.706 275.145 -728.068 282.508C-755.137 285.215 -755.137 285.215 -782.206 282.508C-803.862 260.852 -803.862 260.852 -805.215 227.014C-804.768 216.74 -804.322 206.467 -803.862 195.883C-813.241 198.339 -822.62 200.796 -832.284 203.327C-877.233 207.489 -896.193 198.459 -933.793 174.227C-964.986 141.992 -966.275 134.507 -966.275 87.6016C-955.556 91.1748 -944.837 94.7481 -933.793 98.4297C-843.339 122.888 -792.895 106.249 -708.821 67.6187C-639.924 36.9416 -590.16 31.3783 -519.637 57.1475C-487.193 78.5326 -461.971 102.35 -435.724 130.914C-434.049 119.859 -434.049 119.859 -432.34 108.581C-423.302 69.9608 -408.712 37.1184 -392.413 0.976562ZM203.104 120.086C198.191 128.572 193.278 137.059 188.216 145.803C147.931 186.09 106.593 188.84 51.5178 195.883C50.178 202.359 48.8379 208.836 47.4575 215.509C40.6902 239.195 40.6902 239.195 19.0349 271.68C-21.2764 276.848 -32.8499 273.182 -67.5857 250.023C-73.1687 257.393 -78.7516 264.763 -84.5038 272.356C-110.896 293.336 -110.896 293.336 -149.469 292.659C-184.866 283.005 -198.297 279.018 -219.172 250.023C-222.745 242.877 -226.318 235.73 -230 228.367C-223.091 229.274 -216.182 230.182 -209.063 231.117C-200.117 232.219 -191.17 233.322 -181.952 234.458C-173.033 235.589 -164.115 236.719 -154.925 237.884C-147.542 238.317 -140.158 238.749 -132.551 239.195C-118.262 227.227 -118.262 227.227 -119.017 197.236C-119.367 164.568 -119.367 164.568 -132.551 143.096C-167.391 123.498 -202.483 123.827 -240.827 130.914C-272.956 150.801 -272.956 150.801 -294.965 174.227C-280.538 223.8 -260.698 262.65 -232.03 305.518C-224.814 316.489 -217.598 327.46 -210.163 338.763C-186.831 368.949 -163.262 390.041 -132.551 412.445C-126.187 397.371 -126.187 397.371 -119.693 381.991C-97.5787 343.098 -85.8857 333.657 -45.9304 314.992C-7.39941 310.593 -7.39941 310.593 34.5996 309.578C92.1848 308.183 132.567 303.523 181.449 271.68C195.779 251.011 195.779 251.011 201.75 227.69C204.179 220.195 206.608 212.699 209.11 204.977C214.781 184.963 214.781 184.963 213.932 163.398C221.078 159.825 228.224 156.252 235.587 152.57C228.44 152.57 221.294 152.57 213.932 152.57C208.572 136.491 208.572 136.491 203.104 120.086ZM-381.586 206.711C-387.113 218.366 -392.64 230.021 -398.335 242.029C-443.411 333.726 -490.34 409.376 -562.128 482.265C-636.267 557.926 -708.868 651.817 -710.474 761.652C-708.902 844.929 -678.008 915.626 -619.793 975.508C-595.135 994.734 -569.974 1012.16 -544 1029.65C-529.999 1005.29 -516.016 980.929 -502.043 956.559C-496.118 946.258 -496.118 946.258 -490.073 935.748C-479.085 916.568 -468.228 897.314 -457.379 878.055C-452.857 870.071 -448.334 862.087 -443.675 853.861C-429.711 820.285 -437.969 793.276 -446.551 758.945C-462.359 730.498 -462.359 730.498 -489.862 715.633C-529.862 717.215 -529.862 717.215 -565.655 726.461C-565.655 747.901 -565.655 769.34 -565.655 791.43C-547.789 798.576 -529.924 805.723 -511.517 813.086C-511.517 823.806 -511.517 834.526 -511.517 845.57C-525.316 840.948 -539.067 836.183 -552.797 831.358C-560.459 828.72 -568.122 826.082 -576.017 823.364C-608.17 808.424 -625.674 790.495 -641.448 758.945C-647.729 691.105 -647.729 691.105 -621.146 657.432C-576.253 623.1 -545.164 628.116 -489.862 629.008C-489.052 621.01 -488.242 613.012 -487.408 604.771C-476.507 520.652 -454.678 448.63 -403.241 379.961C-379.471 365.834 -379.471 365.834 -359.931 358.305C-352.712 372.742 -345.494 387.18 -338.275 401.617C-334.702 408.54 -331.129 415.464 -327.448 422.597C-294.963 489.599 -282.767 555.463 -273.31 629.008C-266.903 628.38 -260.497 627.752 -253.896 627.104C-207.097 624.432 -182.906 624.407 -142.702 650.664C-119.456 686.659 -113.578 706.758 -116.521 748.836C-125.882 786.51 -144.805 802.107 -175.862 823.914C-217.142 832.712 -217.142 832.712 -251.655 834.742C-242.945 828.712 -234.236 822.682 -225.262 816.47C-195.877 793.926 -195.877 793.926 -187.366 763.006C-187.143 754.519 -186.919 746.033 -186.689 737.289C-207.038 712.403 -207.038 712.403 -240.15 712.249C-272.65 712.798 -272.65 712.798 -292.258 729.168C-321.688 770.148 -321.688 770.148 -325.629 819.727C-313.898 867.48 -292.073 904.986 -267.219 947.084C-262.62 955.054 -258.021 963.024 -253.283 971.236C-242.001 990.758 -230.599 1010.21 -219.172 1029.65C-143.72 979.367 -86.0615 922.657 -56.7581 834.742C-46.3176 728.394 -57.6534 650.789 -126.054 567.164C-149.94 539.128 -174.257 511.504 -198.791 484.034C-273.374 400.163 -329.253 311.122 -370.758 206.711C-374.331 206.711 -377.904 206.711 -381.586 206.711ZM-965.599 390.789C-984.823 426.978 -973.406 459.528 -966.275 499.07C-996.655 519.324 -1008.64 523.724 -1042.75 529.524C-1065.5 534.18 -1065.5 534.18 -1085.38 542.383C-1103.81 568.096 -1103.81 568.096 -1107.03 596.523C-1103.46 603.67 -1099.89 610.817 -1096.21 618.18C-1074.48 607.363 -1052.8 596.473 -1031.24 585.315C-1024.09 581.644 -1016.95 577.973 -1009.59 574.19C-998.866 568.642 -998.866 568.642 -987.931 562.982C-966.275 553.211 -966.275 553.211 -922.965 542.383C-922.965 510.223 -922.965 478.064 -922.965 444.93C-912.246 444.93 -901.526 444.93 -890.482 444.93C-879.655 466.586 -868.827 488.242 -858 509.898C-819.941 495.123 -819.941 495.123 -783.56 476.737C-751.44 462.566 -719.435 459.759 -684.758 455.758C-684.758 441.465 -684.758 427.172 -684.758 412.445C-690.118 407.085 -690.118 407.085 -695.586 401.617C-748.72 405.201 -748.72 405.201 -794.387 430.041C-814.689 444.93 -814.689 444.93 -844.465 441.546C-852.505 439.089 -860.544 436.633 -868.827 434.102C-872.4 416.235 -875.973 398.369 -879.655 379.961C-924.19 376.744 -924.19 376.744 -965.599 390.789ZM116.483 379.961C112.91 397.827 109.337 415.694 105.656 434.102C81.9705 442.223 81.9705 442.223 51.5178 444.93C33.4265 430.549 15.3828 416.108 -2.62012 401.617C-37.3745 397.988 -37.3745 397.988 -67.5857 401.617C-74.7319 415.91 -81.8781 430.203 -89.2408 444.93C-67.4735 466.698 -27.1721 465.092 2.32837 469.885C29.8625 477.414 29.8625 477.414 52.998 495.094C59.6558 499.98 66.3135 504.865 73.1729 509.898C113.172 496.565 131.112 475.163 159.794 444.93C159.794 477.089 159.794 509.249 159.794 542.383C168.015 545.133 176.236 547.882 184.706 550.715C195.467 554.442 206.228 558.169 217.315 562.009C233.331 567.473 233.331 567.473 249.671 573.048C277.868 585.25 290.897 596.183 311.38 618.18C318.526 618.18 325.672 618.18 333.035 618.18C341.367 592.784 341.367 592.784 343.863 564.039C320.518 532.706 298.208 525.777 260.625 518.696C251.874 516.979 243.123 515.263 234.106 513.494C224.12 511.714 224.12 511.714 213.932 509.898C207.164 478.768 207.164 478.768 203.104 444.93C210.25 437.783 217.396 430.637 224.759 423.273C213.741 400.115 213.741 400.115 192.276 379.961C153.02 376.346 153.02 376.346 116.483 379.961ZM-392.413 477.414C-423.916 546.672 -423.698 621.943 -404.594 695.33C-395.926 727.727 -395.926 727.727 -370.758 737.289C-351.914 688.381 -346.17 647.492 -346.396 595.17C-346.34 582.189 -346.284 569.208 -346.227 555.833C-348.911 523.069 -353.54 504.882 -370.758 477.414C-377.904 477.414 -385.051 477.414 -392.413 477.414ZM-778.188 569.792C-785.097 576.826 -792.006 583.861 -799.125 591.109C-833.505 622.475 -853.147 633.98 -899.956 632.392C-907.968 631.456 -915.979 630.521 -924.234 629.558C-930.961 629.376 -937.689 629.195 -944.62 629.008C-951.766 636.154 -958.913 643.301 -966.275 650.664C-941.488 663.35 -916.672 675.974 -891.836 688.562C-884.787 692.178 -877.739 695.793 -870.477 699.518C-833.611 719.622 -833.611 719.622 -793.034 726.461C-790.94 719.398 -788.847 712.335 -786.69 705.058C-771.526 654.16 -756.089 603.471 -738.896 553.211C-761.956 550.739 -761.956 550.739 -778.188 569.792ZM-24.2754 553.211C-5.64478 612.211 17.3789 669.198 40.6902 726.461C59.6431 717.899 78.5903 709.324 97.5349 700.744C108.087 695.97 118.639 691.197 129.51 686.278C154.305 674.85 178.781 663.057 203.104 650.664C176.185 623.744 167.651 626.98 130.695 626.301C75.9553 622.26 50.1323 605.728 12.2678 567.042C-1.87769 550.754 -1.87769 550.754 -24.2754 553.211ZM-1464.34 650.664C-1462.25 657.601 -1460.16 664.538 -1458 671.686C-1455.18 681.052 -1452.36 690.418 -1449.46 700.067C-1446.69 709.238 -1443.93 718.408 -1441.08 727.857C-1438.04 738.116 -1435 748.375 -1431.86 758.945C-1428.13 770.168 -1424.41 781.39 -1420.57 792.952C-1407.13 847.146 -1403.83 900.304 -1400.06 955.882C-1389.17 1145.09 -1389.17 1145.09 -1291.1 1300.35C-1203.54 1369.76 -1104.33 1360 -998.758 1354.49C-1005.31 1321.74 -1012.5 1289.47 -1020.41 1257.04C-1023.07 1245.86 -1025.72 1234.68 -1028.45 1223.16C-1048.97 1146.59 -1048.97 1146.59 -1105.68 1095.29C-1142.22 1081.4 -1149.22 1083.39 -1188.24 1097.32C-1197.17 1103.58 -1206.11 1109.83 -1215.31 1116.27C-1215.77 1137.92 -1215.75 1159.59 -1215.31 1181.24C-1203.28 1195.71 -1203.28 1195.71 -1172.68 1193.42C-1140.43 1194.38 -1140.43 1194.38 -1117.86 1181.24C-1128.69 1213.73 -1128.69 1213.73 -1151.02 1227.26C-1199.25 1239.58 -1246.11 1238.11 -1290.43 1212.37C-1308.67 1180.17 -1311.49 1153.04 -1312.76 1116.27C-1295.29 1075.82 -1273.58 1053.64 -1236.96 1029.65C-1246.79 1019.6 -1256.62 1009.55 -1266.74 999.194C-1324.5 931.874 -1348.32 846.102 -1356.07 758.945C-1247.61 772.529 -1168.18 805.933 -1085.38 878.055C-1077.56 867.558 -1069.75 857.062 -1061.69 846.247C-1042.82 823.94 -1032.63 813.708 -1005.53 801.581C-964.636 802.555 -936.964 815.232 -901.31 834.742C-874.75 868.233 -875.404 901.369 -879.655 943.023C-894.543 974.154 -894.543 974.154 -912.137 997.164C-919.284 997.164 -926.43 997.164 -933.793 997.164C-930.778 979.074 -930.778 979.074 -927.702 960.619C-919.535 923.255 -919.535 923.255 -933.793 899.711C-972.864 896.25 -972.864 896.25 -1006.88 913.246C-1023.01 935.836 -1029.65 947.592 -1031.24 975.508C-1012.11 1027.58 -993.059 1047.76 -944.62 1072.96C-921.174 1081.54 -897.462 1089.42 -873.564 1096.65C-861.491 1100.37 -849.418 1104.1 -836.979 1107.94C-802.553 1118.03 -802.553 1118.03 -760.551 1116.27C-756.064 988.622 -760.072 902.643 -842.815 800.735C-924.395 737.591 -1020.24 729.23 -1119.89 721.047C-1240.72 709.511 -1349.29 689.016 -1464.34 650.664ZM637.561 670.967C557.123 700.069 480.274 713.683 395.082 720.201C384.688 721.023 374.294 721.844 363.585 722.691C342.787 724.266 321.975 725.674 301.152 726.889C218.428 732.984 149.567 751.927 86.0308 806.995C78.2146 816.152 70.3984 825.308 62.3455 834.742C54.5293 843.229 46.7131 851.715 38.6599 860.459C-10.5469 931.728 -8.0979 1010.66 -2.62012 1094.62C0.952881 1101.76 4.52612 1108.91 8.20752 1116.27C139.031 1100.05 139.031 1100.05 247.091 1037.09C258.547 1004.25 267.326 977.987 268.07 943.023C252.045 915.267 252.045 915.267 224.759 899.711C195.448 901.23 195.448 901.23 170.621 910.539C161.854 942.101 157.428 958.845 169.945 989.72C173.741 995.75 177.537 1001.78 181.449 1007.99C148.966 997.164 148.966 997.164 130.018 968.74C113.737 924.779 114.823 901.359 127.311 856.398C148.683 827.392 163.198 815.751 197.013 803.611C231.435 801.932 248.659 807.282 278.897 823.914C309.35 852.338 309.35 852.338 333.035 878.055C343.308 868.228 353.58 858.402 364.164 848.277C420.081 800.508 487.096 767.369 561.768 767.066C572.041 767.96 582.313 768.853 592.897 769.773C589.417 875.932 544.575 961.524 473.794 1040.48C484.29 1043.16 494.786 1045.84 505.6 1048.6C538.759 1062.13 538.759 1062.13 548.233 1080.41C548.68 1088.67 549.126 1096.93 549.587 1105.45C551.262 1124.21 551.262 1124.21 552.97 1143.34C549.587 1181.24 549.587 1181.24 532.669 1206.96C497.193 1230.61 473.102 1234.66 430.483 1235.38C403.142 1226.98 380.347 1215.99 354.69 1202.9C354.69 1195.75 354.69 1188.61 354.69 1181.24C383.275 1184.82 411.86 1188.39 441.311 1192.07C455.283 1167.53 455.283 1167.53 462.966 1137.93C449.503 1111 438.007 1098.65 411.535 1084.47C371.517 1083.35 345.88 1096.83 311.38 1116.27C281.42 1165.59 268.12 1216.38 255.212 1271.93C253.292 1279.9 251.374 1287.87 249.396 1296.08C244.722 1315.53 240.145 1335.01 235.587 1354.49C266.276 1355.67 296.92 1356.53 327.621 1357.2C336.191 1357.56 344.761 1357.93 353.591 1358.3C425.681 1359.48 481.036 1342.29 536.168 1294.74C628.14 1203.24 630.048 1071.68 638.478 950.243C645.22 860.285 663.274 779.884 690.345 693.977C694.082 679.571 697.755 665.148 701.173 650.664C679.44 650.664 657.453 663.246 637.561 670.967ZM-1269.45 845.57C-1259.62 917.257 -1215.51 961.351 -1159.31 1004.31C-1128.82 1024.38 -1128.82 1024.38 -1096.21 1040.48C-1089.06 1036.9 -1081.91 1033.33 -1074.55 1029.65C-1111.65 960.885 -1147.72 898.683 -1215.31 856.398C-1245.17 846.194 -1245.17 846.194 -1269.45 845.57ZM387.173 910.539C362.052 941.122 338.651 971.87 322.208 1007.99C325.781 1018.71 329.354 1029.43 333.035 1040.48C414.296 995.506 475.914 952.565 517.104 867.227C517.104 860.08 517.104 852.933 517.104 845.57C457.132 845.57 429.913 870.33 387.173 910.539ZM-392.413 932.195C-417.425 982.221 -442.437 1032.25 -468.206 1083.79C-432.233 1114.1 -432.233 1114.1 -392.413 1137.93C-351.568 1130.86 -329.402 1117.58 -294.965 1094.62C-311.698 1035.29 -339.958 985.098 -370.758 932.195C-377.904 932.195 -385.051 932.195 -392.413 932.195ZM-1583.45 1040.48C-1586.97 1056.6 -1589.83 1072.88 -1592.25 1089.2C-1601.72 1135.52 -1601.72 1135.52 -1630.82 1156.2C-1662.99 1160.03 -1675.94 1155.67 -1702.55 1137.93C-1720.15 1150.07 -1720.15 1150.07 -1735.03 1170.41C-1737.75 1204.26 -1737.75 1204.26 -1735.03 1235.38C-1717.17 1238.96 -1699.3 1242.53 -1680.9 1246.21C-1676.02 1308.4 -1685.71 1328.96 -1724.21 1376.15C-1722.78 1405.94 -1722.78 1405.94 -1713.38 1430.29C-1699.09 1433.86 -1684.79 1437.44 -1670.07 1441.12C-1667.19 1431.33 -1664.32 1421.55 -1661.36 1411.47C-1657.53 1398.7 -1653.71 1385.92 -1649.77 1372.76C-1646 1360.08 -1642.23 1347.39 -1638.35 1334.32C-1626.76 1300.35 -1626.76 1300.35 -1605.1 1267.87C-1613.81 1261.39 -1622.52 1254.91 -1631.5 1248.24C-1659.24 1224.55 -1659.24 1224.55 -1670.07 1192.07C-1641.48 1195.64 -1612.9 1199.22 -1583.45 1202.9C-1579.92 1194.02 -1576.39 1185.14 -1572.75 1176C-1568.02 1164.33 -1563.28 1152.66 -1558.41 1140.64C-1553.76 1129.08 -1549.11 1117.52 -1544.32 1105.61C-1530.98 1076.59 -1517.1 1054.14 -1496.83 1029.65C-1508.23 1015.9 -1508.23 1015.9 -1534.05 1016.79C-1563.6 1015.91 -1563.6 1015.91 -1583.45 1040.48ZM744.483 1018.82C740.97 1052.23 740.97 1052.23 764.108 1074.31C794.553 1114.33 806.511 1155.03 820.276 1202.9C863.154 1197.54 863.154 1197.54 906.897 1192.07C877.121 1244.86 877.121 1244.86 852.759 1257.04C859.658 1286.83 868.576 1314.57 879.828 1342.99C892.279 1375.48 901.504 1406.6 906.897 1441.12C928.336 1435.76 928.336 1435.76 950.208 1430.29C959.611 1405.94 959.611 1405.94 961.035 1376.15C946.655 1358.06 932.215 1340.01 917.725 1322.01C915.018 1286.14 915.018 1286.14 917.725 1257.04C926.434 1254.81 935.144 1252.57 944.117 1250.27C953.273 1245.36 962.429 1240.44 971.863 1235.38C981.589 1202.33 981.589 1202.33 982.69 1170.41C955.892 1154.33 955.892 1154.33 928.552 1137.93C924.979 1141.5 921.406 1145.08 917.725 1148.76C892.464 1149.2 867.192 1149.22 841.932 1148.76C839.964 1137.41 839.964 1137.41 837.956 1125.83C836.141 1115.98 834.327 1106.12 832.458 1095.97C830.699 1086.17 828.94 1076.37 827.128 1066.28C822.112 1038.69 822.112 1038.69 798.621 1018.82C770.648 1017.01 770.648 1017.01 744.483 1018.82ZM-673.931 1040.48C-674.154 1058.12 -674.377 1075.76 -674.607 1093.94C-674.733 1103.86 -674.858 1113.79 -674.988 1124.01C-676.74 1148.39 -676.74 1148.39 -663.103 1159.59C-645.062 1160.03 -627.005 1160.05 -608.965 1159.59C-601.819 1141.72 -594.673 1123.85 -587.31 1105.45C-615.895 1084.01 -644.479 1062.57 -673.931 1040.48ZM-139.995 1074.99C-168.336 1102.71 -168.336 1102.71 -164.357 1135.22C-156.589 1161.34 -156.589 1161.34 -132.551 1170.41C-118.259 1163.27 -103.966 1156.12 -89.2408 1148.76C-89.2408 1116.6 -89.2408 1084.44 -89.2408 1051.3C-114.35 1049.03 -114.35 1049.03 -139.995 1074.99ZM-1475.17 1148.76C-1489.49 1177.39 -1487.05 1199.41 -1486.68 1231.32C-1486.58 1242.18 -1486.48 1253.04 -1486.38 1264.23C-1486.25 1272.58 -1486.13 1280.92 -1486 1289.52C-1492.64 1292.29 -1499.29 1295.05 -1506.13 1297.9C-1532.3 1312.9 -1539.97 1324.01 -1553.67 1350.43C-1563.05 1368.52 -1563.05 1368.52 -1572.62 1386.98C-1565.1 1383.88 -1557.57 1380.78 -1549.82 1377.59C-1516.9 1364.7 -1483.71 1353.38 -1450.13 1342.31C-1438.56 1338.49 -1426.99 1334.66 -1415.07 1330.72C-1406.32 1327.85 -1397.57 1324.97 -1388.55 1322.01C-1392.21 1314.04 -1395.86 1306.07 -1399.63 1297.86C-1404.46 1287.29 -1409.29 1276.72 -1414.27 1265.84C-1419.04 1255.41 -1423.81 1244.98 -1428.73 1234.24C-1441.32 1205.98 -1453.08 1177.56 -1464.34 1148.76C-1467.92 1148.76 -1471.49 1148.76 -1475.17 1148.76ZM701.173 1148.76C696.609 1159.45 692.045 1170.14 687.342 1181.16C681.351 1195.17 675.359 1209.19 669.367 1223.2C666.359 1230.25 663.351 1237.3 660.252 1244.56C637.434 1297.9 637.434 1297.9 625.38 1322.01C646.126 1329.02 666.88 1336.01 687.638 1342.99C699.195 1346.88 710.752 1350.78 722.659 1354.79C747.919 1362.94 772.784 1370.19 798.621 1376.15C787.994 1344.27 781.439 1325.53 754.634 1304.41C724.354 1267.29 727.401 1231.99 725.789 1185.18C724.323 1172.51 724.323 1172.51 722.828 1159.59C715.682 1156.01 708.536 1152.44 701.173 1148.76ZM-955.448 1159.59C-950.55 1180.36 -945.571 1201.11 -940.56 1221.85C-937.796 1233.41 -935.033 1244.96 -932.185 1256.87C-924.315 1284.74 -915.357 1307.67 -901.31 1332.84C-867.478 1335.14 -842.684 1335.58 -811.306 1322.01C-783.01 1288.47 -785.045 1257.01 -782.206 1213.73C-839.098 1187.1 -893.824 1171.46 -955.448 1159.59ZM-511.517 1170.41C-529.382 1199 -547.248 1227.59 -565.655 1257.04C-608.532 1253.47 -651.409 1249.89 -695.586 1246.21C-698.042 1266.76 -700.499 1287.3 -703.03 1308.47C-711.489 1344.34 -711.489 1344.34 -728.068 1376.15C-773.192 1400.76 -818.343 1411.11 -868.827 1419.46C-865.254 1462.34 -861.681 1505.22 -858 1549.4C-900.877 1576.2 -900.877 1576.2 -944.62 1603.54C-932.989 1633.96 -920.702 1661.7 -904.693 1690.16C-888.274 1727.7 -887.427 1738.84 -901.31 1776.79C-915.136 1802.44 -929.906 1827.43 -944.62 1852.59C-944.62 1859.73 -944.62 1866.88 -944.62 1874.24C-932.561 1881.39 -920.502 1888.54 -908.077 1895.9C-897.902 1901.93 -897.902 1901.93 -887.522 1908.08C-869.101 1919.19 -869.101 1919.19 -847.172 1917.55C-855.631 1949.28 -855.631 1949.28 -864.09 1981C-870.272 2007.31 -870.272 2007.31 -868.827 2047.49C-859.824 2049.49 -850.822 2051.48 -841.547 2053.54C-746.727 2078.85 -746.727 2078.85 -723.797 2113.86C-716.179 2138.59 -711.327 2162.88 -706.413 2188.26C-699.64 2202.91 -692.537 2217.43 -684.758 2231.57C-673.146 2228 -661.533 2224.42 -649.568 2220.74C-608.965 2209.91 -608.965 2209.91 -565.655 2209.91C-551.362 2238.5 -537.07 2267.09 -522.344 2296.54C-485.529 2292.08 -461.425 2282.11 -430.987 2262.02C-392.413 2242.4 -392.413 2242.4 -358.577 2248.49C-327.448 2264.05 -327.448 2264.05 -298.349 2281.65C-273.512 2299.31 -273.512 2299.31 -240.827 2296.54C-224.916 2277.4 -224.916 2277.4 -211.728 2253.23C-203.465 2238.93 -195.202 2224.64 -186.689 2209.91C-127.733 2220.63 -127.733 2220.63 -67.5857 2231.57C-66.0923 2221.91 -64.5988 2212.25 -63.0601 2202.3C-54.0789 2160.9 -44.886 2127.94 -24.2754 2090.8C20.9517 2065.7 65.6006 2055.36 116.483 2047.49C105.764 2004.61 95.0447 1961.73 84.0005 1917.55C101.866 1910.41 119.731 1903.26 138.138 1895.9C152.653 1888.84 167.12 1881.67 181.449 1874.24C176.152 1841.14 166.012 1823.61 147.613 1794.38C131.012 1765.97 127.311 1756.17 127.311 1721.97C139.964 1684.8 158.205 1656.69 181.449 1625.2C169.16 1589.55 159.871 1581.93 125.958 1562.93C115.685 1558.47 105.412 1554 94.8281 1549.4C100.263 1509.02 106.111 1469.69 116.483 1430.29C110.077 1428.32 103.67 1426.35 97.0698 1424.33C70.8606 1415.99 44.9556 1407 19.0349 1397.8C8.76245 1394.23 -1.51025 1390.66 -12.0942 1386.98C-51.9922 1349.42 -55.8689 1298.63 -67.5857 1246.21C-110.463 1249.78 -153.34 1253.36 -197.517 1257.04C-211.809 1228.45 -226.102 1199.87 -240.827 1170.41C-271.131 1182 -298.56 1194.14 -326.771 1210.34C-367.256 1227.69 -382.966 1226.31 -424.896 1213.73C-454.546 1200.41 -482.809 1185.76 -511.517 1170.41ZM181.449 1159.59C127.852 1177.45 74.2556 1195.32 19.0349 1213.73C21.7148 1229.36 24.3948 1244.99 27.1558 1261.1C28.6631 1269.89 30.1704 1278.69 31.7236 1287.75C38.7336 1312.26 38.7336 1312.26 59.1309 1325.14C89.9197 1334.67 116.926 1334.29 148.966 1332.84C156.526 1310.09 163.943 1287.3 171.298 1264.48C175.443 1251.8 179.589 1239.11 183.86 1226.04C195.493 1192.06 195.493 1192.06 181.449 1159.59ZM-1629.93 1551.26C-1713.54 1630.37 -1805.39 1683.05 -1908.28 1733.48C-1883.06 1758.69 -1860.17 1768.08 -1827.75 1782.88C-1755.16 1818.57 -1698.76 1865.31 -1637.59 1917.55C-1613.46 1937.27 -1589.04 1956.57 -1564.5 1975.76C-1553.39 1984.55 -1542.28 1993.34 -1530.83 2002.4C-1460.27 2051.03 -1385.74 2077.45 -1299.52 2065.93C-1224.15 2046.26 -1169.62 1995.67 -1117.86 1939.21C-1104.12 1915.91 -1104.12 1915.91 -1096.21 1895.9C-1122.65 1879.94 -1149.12 1864.05 -1175.72 1848.36C-1192.52 1838.18 -1209.13 1827.62 -1225.12 1816.21C-1251.93 1797.74 -1273.01 1787.21 -1305.82 1789.06C-1345.26 1796.97 -1370.51 1802.06 -1399.38 1830.93C-1402.99 1868.83 -1402.99 1868.83 -1399.38 1906.73C-1392.23 1913.87 -1385.09 1921.02 -1377.72 1928.38C-1350.06 1929.17 -1350.06 1929.17 -1323.59 1917.55C-1308.7 1890.74 -1308.7 1890.74 -1301.93 1863.41C-1294.78 1863.41 -1287.64 1863.41 -1280.28 1863.41C-1294.17 1950.62 -1294.17 1950.62 -1318.85 1983.2C-1360.41 1999.19 -1398.91 2001.62 -1442.69 1993.35C-1470.43 1972.37 -1470.43 1972.37 -1486 1939.21C-1489.24 1906.37 -1488.58 1874.63 -1486 1841.76C-1494.78 1840.95 -1503.56 1840.14 -1512.6 1839.3C-1602.94 1828.58 -1669.27 1803.94 -1745.86 1755.13C-1744.09 1735.59 -1744.09 1735.59 -1735.03 1711.82C-1659.86 1659.27 -1576.11 1635.48 -1486 1625.2C-1486.56 1615.4 -1486.56 1615.4 -1487.14 1605.4C-1488.42 1567.68 -1489.2 1536.27 -1475.85 1500.67C-1439.11 1473.95 -1400.79 1470.61 -1356.07 1473.6C-1320.48 1490.62 -1306.85 1505.33 -1291.48 1541.53C-1283.23 1565.65 -1275.93 1589.72 -1269.45 1614.37C-1291.1 1592.71 -1312.76 1571.05 -1334.41 1549.4C-1361.48 1547.59 -1361.48 1547.59 -1388.55 1549.4C-1403.68 1562.07 -1403.68 1562.07 -1400.73 1597.45C-1402.11 1634.3 -1402.11 1634.3 -1388.55 1657.68C-1337.07 1680.97 -1302.51 1680.14 -1247.79 1668.51C-1217.95 1655.85 -1190.01 1640.52 -1161.85 1624.52C-1154.44 1620.44 -1147.04 1616.35 -1139.41 1612.15C-1121.34 1602.16 -1103.35 1592.04 -1085.38 1581.88C-1124.83 1510.21 -1182.19 1460.39 -1252.53 1419.46C-1405.31 1376.57 -1521.35 1448.41 -1629.93 1551.26ZM354.69 1527.74C341.021 1556.29 341.021 1556.29 333.035 1581.88C359.957 1598.64 387.012 1615.04 414.242 1631.29C425.547 1638.39 425.547 1638.39 437.081 1645.65C494.632 1679.49 527.708 1683.75 592.897 1668.51C620.827 1658.41 620.827 1658.41 636.208 1636.02C640.722 1597.22 640.722 1597.22 636.208 1560.23C624.91 1546.82 624.91 1546.82 600.341 1545.34C568.48 1546.65 568.48 1546.65 546.203 1576.47C540.174 1585.4 534.144 1594.34 527.932 1603.54C531.818 1525.81 531.818 1525.81 560.414 1489.17C606.162 1467.25 642.164 1470.32 690.345 1484.43C712.677 1500.67 712.677 1500.67 722.828 1527.74C725.195 1560.43 724.715 1592.5 722.828 1625.2C730.951 1626.13 739.074 1627.07 747.444 1628.03C841.967 1641.01 914.402 1669.9 993.518 1722.65C973.56 1772.81 943.396 1785.71 896.281 1808.13C840.053 1828.72 782.137 1835.53 722.828 1841.76C725.285 1853.15 727.741 1864.54 730.272 1876.27C734.043 1922.29 728.75 1935.95 701.173 1971.7C679.518 1993.35 679.518 1993.35 638.238 1997.41C593.065 1996.43 570.607 1982.85 538.759 1950.04C524.094 1920.71 527.228 1895.8 527.932 1863.41C535.078 1863.41 542.224 1863.41 549.587 1863.41C550.703 1870.11 551.82 1876.81 552.97 1883.72C559.064 1910.68 559.064 1910.68 592.897 1928.38C603.616 1928.38 614.336 1928.38 625.38 1928.38C641.386 1896.37 636.861 1866.2 636.208 1830.93C619.124 1819.87 619.124 1819.87 601.695 1808.6C595.288 1804.45 588.882 1800.31 582.281 1796.03C551.759 1784.29 537.539 1788.57 506.276 1798.45C477.593 1811.41 450 1826.04 422.363 1841.08C414.951 1844.98 407.54 1848.88 399.904 1852.9C359.632 1872.54 359.632 1872.54 333.035 1906.73C396.925 1984.99 456.826 2051.59 560.414 2069.15C703.048 2071.02 791.764 1992.13 894.039 1901.35C973.07 1832.3 1049.42 1787.05 1145.1 1744.3C1117.53 1712.36 1086.64 1697.74 1049.01 1679.34C966.164 1635.83 900.957 1578.49 831.104 1516.91C750.816 1449.98 672.745 1399.79 564.813 1405.29C476.349 1416.64 413.487 1461.13 354.69 1527.74ZM-1063.72 1462.77C-1045.86 1484.21 -1027.99 1505.65 -1009.59 1527.74C-991.72 1520.6 -973.855 1513.45 -955.448 1506.09C-959.021 1484.65 -962.594 1463.21 -966.275 1441.12C-1005.53 1438.94 -1029.78 1442.66 -1063.72 1462.77ZM203.104 1441.12C199.531 1462.56 195.958 1484 192.276 1506.09C219.075 1516.81 219.075 1516.81 246.414 1527.74C264.917 1510.16 282.952 1492.08 300.552 1473.6C300.552 1466.45 300.552 1459.31 300.552 1451.95C268.394 1448.37 236.236 1444.8 203.104 1441.12ZM-1125.98 1690.16C-1136.65 1696.19 -1147.31 1702.22 -1158.3 1708.44C-1166.39 1713.13 -1174.49 1717.82 -1182.83 1722.65C-1167.04 1763.99 -1147.46 1777.5 -1108.39 1797.09C-1099.04 1801.98 -1089.68 1806.86 -1080.05 1811.9C-1053.44 1822.7 -1053.44 1822.7 -1029.13 1812.74C-1006.57 1797.96 -1006.57 1797.96 -987.931 1765.96C-984.046 1729.45 -984.255 1707.98 -1001.46 1675.28C-1043.45 1636.29 -1084.04 1666.2 -1125.98 1690.16ZM257.242 1657.68C231.272 1688.13 224.472 1704.8 226.113 1744.98C235.575 1776.75 246.277 1795.47 268.07 1820.1C327.397 1803.37 377.583 1775.11 430.483 1744.3C394.553 1702.38 352.036 1676.58 300.552 1657.68C286.26 1657.68 271.968 1657.68 257.242 1657.68ZM-1648.41 1733.48C-1608.9 1772.99 -1567.76 1767.73 -1514.42 1767.99C-1500.27 1768.14 -1486.12 1768.3 -1471.53 1768.46C-1434.7 1766.14 -1410.57 1760.35 -1377.72 1744.3C-1387.32 1719.01 -1387.32 1719.01 -1420.36 1710.47C-1502.28 1689.44 -1573.65 1694.47 -1648.41 1733.48ZM603.725 1733.48C655.668 1760.35 695.281 1767.68 753.958 1767.99C773.679 1768.22 773.679 1768.22 793.8 1768.46C829.409 1766.07 853.34 1759.65 885.242 1744.3C856.417 1712.73 835.219 1702.14 791.727 1698.79C720.647 1697.7 668.405 1703.62 603.725 1733.48ZM-1009.59 1950.04C-1031.02 1975.05 -1052.46 2000.06 -1074.55 2025.84C-1056.73 2026.13 -1038.91 2026.34 -1021.09 2026.51C-1006.2 2026.7 -1006.2 2026.7 -991.018 2026.89C-966.644 2028.65 -966.644 2028.65 -955.448 2015.01C-955.008 1996.97 -954.985 1978.91 -955.448 1960.87C-973.313 1957.29 -991.179 1953.72 -1009.59 1950.04ZM213.932 1950.04C206.785 1957.19 199.639 1964.33 192.276 1971.7C195.746 1999.88 195.746 1999.88 203.104 2025.84C238.835 2025.84 274.566 2025.84 311.38 2025.84C303.34 2013.33 295.301 2000.82 287.018 1987.94C282.496 1980.9 277.973 1973.87 273.314 1966.62C268.01 1961.15 262.707 1955.68 257.242 1950.04C242.949 1950.04 228.657 1950.04 213.932 1950.04ZM-1710 2038.69C-1727.06 2057.95 -1727.06 2057.95 -1722.85 2085.39C-1715.73 2112.85 -1715.73 2112.85 -1696.46 2127.35C-1671.46 2155.61 -1678.85 2184.68 -1680.9 2220.74C-1698.76 2224.32 -1716.63 2227.89 -1735.03 2231.57C-1739.55 2268.1 -1739.55 2268.1 -1735.03 2307.37C-1709.34 2329.12 -1709.34 2329.12 -1680.9 2339.85C-1677.32 2332.71 -1673.75 2325.56 -1670.07 2318.2C-1644.35 2320.9 -1644.35 2320.9 -1615.93 2329.02C-1590.81 2363.4 -1583.57 2407.45 -1572.62 2448.13C-1546.66 2455.49 -1546.66 2455.49 -1518.48 2458.96C-1511.34 2451.81 -1504.19 2444.67 -1496.83 2437.3C-1505.09 2426.58 -1513.35 2415.86 -1521.87 2404.82C-1551.56 2363.57 -1567.42 2322.96 -1583.45 2274.88C-1608.46 2274.88 -1633.47 2274.88 -1659.24 2274.88C-1645.14 2243.42 -1629.91 2222.81 -1605.1 2199.09C-1611.8 2186.58 -1618.5 2174.07 -1625.4 2161.19C-1647.78 2116.76 -1659.67 2074.38 -1670.07 2025.84C-1692.5 2023.76 -1692.5 2023.76 -1710 2038.69ZM906.897 2025.84C904.803 2034.59 902.71 2043.34 900.553 2052.36C897.733 2063.93 894.914 2075.5 892.009 2087.42C889.246 2098.85 886.482 2110.28 883.635 2122.06C875.291 2152.57 865.157 2180.86 852.759 2209.91C867.646 2226.61 867.646 2226.61 885.242 2242.4C892.388 2242.4 899.534 2242.4 906.897 2242.4C906.897 2253.12 906.897 2263.84 906.897 2274.88C878.312 2274.88 849.728 2274.88 820.276 2274.88C817.652 2281.95 815.028 2289.01 812.325 2296.29C791.001 2351.89 769.004 2400.16 733.656 2448.13C759.14 2455.58 759.14 2455.58 787.794 2458.96C821.616 2441.31 821.616 2441.31 827.424 2414.63C828.862 2406.04 830.3 2397.44 831.781 2388.58C839.707 2342.08 839.707 2342.08 863.587 2318.2C891.91 2321.74 913.835 2327.08 939.38 2339.85C939.38 2332.71 939.38 2325.56 939.38 2318.2C953.672 2311.05 967.965 2303.9 982.69 2296.54C979.117 2275.1 975.544 2253.66 971.863 2231.57C957.57 2231.57 943.278 2231.57 928.552 2231.57C920.432 2197.73 920.432 2197.73 917.725 2155.77C931.754 2133.85 946.172 2112.17 961.035 2090.8C959.709 2060.53 959.709 2060.53 950.208 2036.66C935.915 2033.09 921.623 2029.52 906.897 2025.84ZM-1561.79 2090.8C-1557.95 2125.35 -1551.46 2133.71 -1523.9 2156.45C-1488.58 2197.95 -1489.94 2228 -1488.58 2281.1C-1488.61 2309.34 -1488.61 2309.34 -1464.34 2329.02C-1461.59 2321.05 -1458.85 2313.08 -1456.01 2304.87C-1452.29 2294.31 -1448.56 2283.74 -1444.72 2272.85C-1441.08 2262.43 -1437.43 2252 -1433.68 2241.26C-1421.25 2210.46 -1406.38 2183.72 -1388.55 2155.77C-1401.5 2151.08 -1414.46 2146.39 -1427.8 2141.56C-1466.68 2127.08 -1503.03 2109.36 -1540.14 2090.8C-1547.28 2090.8 -1554.43 2090.8 -1561.79 2090.8ZM741.1 2111.11C706.428 2126.88 671.742 2142.02 636.208 2155.77C639.306 2163.41 642.405 2171.04 645.597 2178.91C657.914 2210.04 669.49 2241.36 680.871 2272.85C684.696 2283.42 688.52 2293.99 692.46 2304.87C695.335 2312.84 698.211 2320.81 701.173 2329.02C729.112 2301.08 725.216 2288.57 726.212 2249.84C729.379 2204.91 730.382 2192.2 760.048 2156.45C769.204 2149.08 778.36 2141.71 787.794 2134.12C801.818 2110.66 801.818 2110.66 809.449 2090.8C782.148 2090.8 765.878 2099.7 741.1 2111.11ZM-1314.44 2196.85C-1380.14 2275.43 -1385.48 2384.1 -1393.29 2481.97C-1404.24 2599.01 -1424.88 2705.68 -1464.34 2816.29C-1457.8 2814.14 -1451.26 2811.99 -1444.51 2809.78C-1378.74 2789 -1314.76 2775.7 -1246.44 2766.89C-1236.63 2765.53 -1226.82 2764.18 -1216.72 2762.78C-1170.7 2756.5 -1124.68 2750.75 -1078.48 2745.99C-999.957 2737.76 -936.141 2729.54 -868.827 2686.35C-859.001 2680.1 -849.175 2673.84 -839.051 2667.4C-786.054 2614.4 -761.463 2547.38 -759.494 2473.34C-759.565 2458.62 -759.694 2443.9 -759.875 2429.18C-759.923 2421.63 -759.972 2414.08 -760.022 2406.3C-760.15 2387.76 -760.344 2369.22 -760.551 2350.68C-893.568 2374.25 -893.568 2374.25 -1009.59 2435.27C-1024.01 2466.82 -1031.24 2488.93 -1031.24 2523.93C-1009.13 2556.88 -1009.13 2556.88 -977.103 2578.07C-952.468 2577.58 -952.468 2577.58 -933.793 2567.24C-922.869 2521.37 -922.869 2521.37 -933.116 2476.56C-936.912 2470.75 -940.709 2464.94 -944.62 2458.96C-881.211 2520.75 -881.211 2520.75 -876.271 2565.21C-880.43 2607.64 -893.65 2623.69 -922.965 2653.87C-956.441 2670.61 -983.538 2667.87 -1020.41 2664.7C-1046.02 2644.48 -1060.05 2628.74 -1074.55 2599.73C-1107.9 2615.67 -1138.71 2634.17 -1169.97 2653.87C-1229.19 2689.63 -1275.05 2708.01 -1345.24 2708.01C-1354.55 2600.96 -1303.91 2517.19 -1236.96 2437.3C-1245.45 2432.84 -1253.94 2428.37 -1262.68 2423.77C-1292.92 2403.61 -1303.15 2396.09 -1312.76 2361.51C-1311.31 2320.88 -1307.08 2294.08 -1285.69 2259.32C-1245.08 2233.93 -1207.83 2236.59 -1161.17 2242.4C-1128.01 2253.23 -1128.01 2253.23 -1107.03 2264.05C-1107.03 2274.77 -1107.03 2285.49 -1107.03 2296.54C-1118.87 2292.52 -1130.71 2288.5 -1142.9 2284.36C-1156.08 2281.23 -1169.25 2278.1 -1182.83 2274.88C-1193.55 2282.03 -1204.27 2289.18 -1215.31 2296.54C-1220.01 2327.09 -1219.11 2343.96 -1203.81 2370.98C-1170.09 2390.56 -1143.9 2380.74 -1107.03 2372.34C-1079.97 2362.08 -1067.01 2356.52 -1052.67 2331.02C-1048.83 2319.35 -1048.83 2319.35 -1044.9 2307.45C-1042.06 2298.92 -1039.22 2290.4 -1036.3 2281.61C-1033.51 2272.69 -1030.73 2263.77 -1027.86 2254.58C-1023.37 2241.33 -1023.37 2241.33 -1018.78 2227.81C-999.882 2170.7 -999.882 2170.7 -1009.59 2112.46C-1128.16 2107.51 -1225.65 2110.42 -1314.44 2196.85ZM235.587 2134.12C244.639 2169.66 254.268 2205.01 264.009 2240.37C266.563 2250.43 269.118 2260.48 271.749 2270.84C288.186 2331.73 288.186 2331.73 333.542 2373.48C376.192 2386.76 376.192 2386.76 419.656 2383.16C444.952 2357.19 444.952 2357.19 462.966 2329.02C450.184 2295.75 450.184 2295.75 421.686 2276.24C391.205 2274.49 371.186 2283.64 343.863 2296.54C366.593 2267.21 384.248 2245.14 421.771 2237.66C458.813 2236.68 488 2239.42 522.518 2253.23C547.432 2286.45 551.64 2321.08 549.587 2361.51C531.907 2404.31 514.801 2418.46 473.794 2437.3C480.074 2443.82 480.074 2443.82 486.482 2450.46C557.769 2528.28 586.247 2603.26 592.897 2708.01C498.478 2704.86 410.089 2673.83 340.014 2608.4C334.138 2601.96 328.261 2595.53 322.208 2588.9C317.071 2599.4 311.935 2609.89 306.643 2620.71C277.594 2655.43 272.791 2659.55 230.85 2666.05C195.213 2667.58 181.836 2664.89 148.966 2648.45C120.552 2612.93 116.483 2590.92 116.483 2545.59C132.048 2509.72 132.048 2509.72 148.966 2480.62C148.966 2473.47 148.966 2466.32 148.966 2458.96C159.685 2458.96 170.405 2458.96 181.449 2458.96C177.652 2466.78 173.856 2474.59 169.945 2482.65C158.667 2516.48 160.974 2533.48 170.621 2567.24C188.487 2570.82 206.352 2574.39 224.759 2578.07C248.462 2555 248.462 2555 268.07 2523.93C266.399 2483.01 257.35 2450.25 235.587 2415.65C214.639 2403.7 214.639 2403.7 189.612 2396.83C180.546 2393.99 171.481 2391.15 162.141 2388.22C152.657 2385.43 143.173 2382.65 133.401 2379.78C123.959 2376.79 114.517 2373.79 104.789 2370.71C51.4131 2352.55 51.4131 2352.55 -2.62012 2361.51C-9.86841 2518.84 -9.86841 2518.84 63.6987 2651.84C145.658 2725.3 234.182 2736.75 340.854 2748.5C388.196 2753.92 435.387 2760.39 482.591 2766.89C491.89 2768.08 501.189 2769.27 510.77 2770.5C576.546 2779.55 638.126 2795.56 701.173 2816.29C698.889 2808.81 696.605 2801.34 694.252 2793.64C685.544 2765.14 676.907 2736.66 668.69 2708.01C664.964 2695.03 661.237 2682.05 657.397 2668.67C641.027 2602.34 639.134 2534.11 634.875 2466.15C626.356 2350.72 604.507 2254.01 520.488 2169.99C445.756 2112.07 317.892 2079.24 235.587 2134.12ZM-901.31 2134.12C-927.94 2191.01 -943.57 2245.74 -955.448 2307.37C-896.235 2296.37 -838.901 2284.94 -782.206 2264.05C-785.417 2207.78 -785.417 2207.78 -805.215 2156.45C-835.885 2139.07 -866.628 2137.39 -901.31 2134.12ZM40.6902 2155.77C33.5439 2191.51 26.3977 2227.24 19.0349 2264.05C41.8003 2271.33 64.5874 2278.54 87.384 2285.71C106.415 2291.74 106.415 2291.74 125.831 2297.89C159.132 2308.82 159.132 2308.82 192.276 2307.37C180.399 2245.74 164.769 2191.01 138.138 2134.12C103.996 2134.12 73.2317 2146.13 40.6902 2155.77ZM-673.931 2318.2C-673.931 2346.78 -673.931 2375.37 -673.931 2404.82C-659.638 2404.82 -645.346 2404.82 -630.62 2404.82C-606.055 2378.63 -606.055 2378.63 -587.31 2350.68C-594.456 2336.39 -601.602 2322.09 -608.965 2307.37C-649.854 2304.14 -649.854 2304.14 -673.931 2318.2ZM-143.379 2307.37C-150.525 2314.51 -157.671 2321.66 -165.034 2329.02C-166.56 2355.8 -166.56 2355.8 -154.206 2383.16C-122.173 2408.44 -122.173 2408.44 -89.2408 2426.48C-89.2408 2390.74 -89.2408 2355.01 -89.2408 2318.2C-115.197 2310.84 -115.197 2310.84 -143.379 2307.37ZM-468.206 2383.16C-456.104 2408.24 -443.912 2433.27 -431.663 2458.28C-428.23 2465.42 -424.796 2472.56 -421.259 2479.92C-403.731 2519.74 -403.731 2519.74 -370.758 2545.59C-345.746 2491.99 -320.735 2438.39 -294.965 2383.16C-376.067 2329.09 -393.642 2328.93 -468.206 2383.16ZM-1204.48 2502.27C-1241.2 2541.88 -1269.78 2578.53 -1280.28 2632.21C-1221.87 2628.56 -1180.11 2596.03 -1139.52 2556.41C-1100.09 2501.35 -1100.09 2501.35 -1085.38 2437.3C-1130.62 2437.3 -1170.35 2475.13 -1204.48 2502.27ZM322.208 2437.3C342.746 2511.64 384.481 2559.65 441.311 2610.55C468.379 2624.24 486.732 2628.33 517.104 2632.21C501.127 2561.2 457.074 2507.52 398.593 2465.47C362.733 2443.87 362.733 2443.87 322.208 2437.3ZM-630.62 2513.1C-687.767 2580.97 -712.091 2641.53 -709.585 2730.89C-697.566 2849.33 -619.774 2926.32 -544 3011.2C-473.216 3091.69 -426.155 3174.41 -381.586 3271.07C-361.329 3240.68 -346.919 3211.37 -331.508 3178.35C-293.368 3101.51 -244.608 3038.75 -185.843 2976.55C-110.735 2896.71 -54.4531 2813.59 -48.6375 2701.24C-53.948 2597.99 -110.284 2529.43 -183.221 2460.91C-187.938 2456.69 -192.656 2452.48 -197.517 2448.13C-247.315 2464.73 -257.936 2503.45 -281.431 2548.29C-286.022 2556.57 -290.615 2564.85 -295.346 2573.38C-321.174 2621.16 -321.174 2621.16 -325.756 2674.17C-314.239 2703.18 -303.395 2726.56 -284.137 2751.32C-258.221 2763.9 -258.221 2763.9 -230 2762.15C-205.042 2747.73 -205.041 2747.73 -186.689 2729.66C-191.8 2683.66 -218.81 2662.53 -251.655 2632.21C-208.834 2640.78 -175.018 2647.63 -137.965 2670.79C-113.489 2710.56 -116.606 2749.07 -121.724 2794.63C-125.297 2805.35 -128.87 2816.07 -132.551 2827.12C-153.403 2835.41 -153.403 2835.41 -179.245 2840.65C-187.689 2842.49 -196.134 2844.34 -204.834 2846.24C-230.828 2848.86 -248.602 2845.86 -273.31 2837.95C-274.245 2846.85 -275.18 2855.76 -276.144 2864.93C-286.425 2946.62 -302.036 3018.13 -349.103 3086.99C-381.586 3108.65 -381.586 3108.65 -403.241 3108.65C-407.261 3097.93 -407.261 3097.93 -411.362 3086.99C-423.364 3056.38 -423.364 3056.38 -435.216 3036.19C-470.707 2972.76 -480.79 2909.57 -489.862 2837.95C-497.175 2838.57 -504.489 2839.2 -512.024 2839.85C-590.025 2843.79 -590.025 2843.79 -627.237 2816.97C-646.543 2771.92 -645.237 2733.09 -630.62 2686.35C-599.05 2644.99 -560.391 2642.63 -511.517 2632.21C-520.449 2640.03 -529.382 2647.84 -538.586 2655.9C-567.828 2683.32 -567.828 2683.32 -570.392 2715.45C-567.709 2742.5 -567.709 2742.5 -544 2762.15C-511.891 2763.73 -511.891 2763.73 -479.034 2751.32C-450.791 2723.84 -450.791 2723.84 -435.724 2686.35C-438.648 2623.02 -459.976 2578.4 -490.538 2524.61C-494.621 2517.2 -498.703 2509.8 -502.91 2502.17C-512.892 2484.1 -523.017 2466.11 -533.172 2448.13C-573.96 2448.13 -602.796 2485.76 -630.62 2513.1ZM-381.586 2729.66C-416.23 2806.17 -430.822 2883.53 -404.383 2965.39C-394.639 2991.15 -394.639 2991.15 -370.758 3000.37C-331.857 2938.15 -341.221 2848.47 -354.009 2778.69C-360.059 2756.55 -360.059 2756.55 -370.758 2729.66C-374.331 2729.66 -377.904 2729.66 -381.586 2729.66ZM-878.978 2777.04C-888.232 2781.81 -897.485 2786.58 -907.02 2791.5C-920.272 2798.41 -920.272 2798.41 -933.793 2805.46C-948.215 2812.71 -962.646 2819.94 -977.103 2827.12C-949.975 2840.68 -930.247 2838.71 -899.956 2839.3C-830.56 2844.51 -795.453 2874.38 -749.724 2924.57C-742.577 2921 -735.431 2917.42 -728.068 2913.74C-731.851 2905.65 -735.633 2897.55 -739.53 2889.21C-746.921 2873.21 -746.921 2873.21 -754.461 2856.89C-759.36 2846.34 -764.259 2835.79 -769.306 2824.92C-779.866 2800.13 -787.592 2777.59 -793.034 2751.32C-830.123 2751.32 -846.38 2760.08 -878.978 2777.04ZM40.6902 2751.32C31.8542 2772.06 23.0662 2792.82 14.2979 2813.58C9.39893 2825.14 4.49976 2836.7 -0.547607 2848.6C-10.6304 2874.13 -18.6277 2897.82 -24.2754 2924.57C22.042 2905.29 22.042 2905.29 55.3245 2869.67C73.1729 2848.77 73.1729 2848.77 101.638 2842.94C117.361 2842.48 117.361 2842.48 133.401 2842.01C179.101 2842.5 179.101 2842.5 213.932 2816.29C191.152 2807.48 168.368 2798.69 145.583 2789.9C132.895 2785 120.208 2780.1 107.136 2775.05C85.1501 2766.7 63.0017 2758.76 40.6902 2751.32ZM-1085.38 2848.77C-1098.35 2873.99 -1098.35 2873.99 -1107.03 2902.91C-1089.39 2936.74 -1089.39 2936.74 -1062.71 2942.55C-1054.11 2943.98 -1045.51 2945.42 -1036.65 2946.9C-990.155 2954.83 -990.155 2954.83 -966.275 2978.71C-959.508 3007.13 -959.508 3007.13 -955.448 3032.85C-962.594 3032.85 -969.74 3032.85 -977.103 3032.85C-964.992 3073.2 -964.992 3073.2 -933.793 3097.82C-915.64 3094.79 -897.563 3091.23 -879.655 3086.99C-879.655 3069.13 -879.655 3051.26 -879.655 3032.85C-817.819 3028 -796.268 3036.97 -749.724 3076.16C-721.271 3081.59 -721.271 3081.59 -695.586 3076.16C-688.439 3069.02 -681.293 3061.87 -673.931 3054.51C-673.931 3043.79 -673.931 3033.07 -673.931 3022.02C-682.682 3019.93 -691.433 3017.84 -700.45 3015.68C-712.02 3012.86 -723.591 3010.04 -735.512 3007.13C-746.943 3004.37 -758.375 3001.61 -770.152 2998.76C-800.657 2990.42 -828.946 2980.28 -858 2967.88C-862.689 2974.81 -867.379 2981.73 -872.211 2988.86C-890.482 3011.2 -890.482 3011.2 -922.965 3022.02C-922.965 2993.44 -922.965 2964.85 -922.965 2935.4C-930.153 2932.77 -937.341 2930.15 -944.747 2927.45C-998.296 2907.12 -1042.84 2888.48 -1085.38 2848.77ZM311.38 2859.6C290.684 2869.47 290.684 2869.47 270.1 2884.64C234.371 2908.42 201.5 2923.93 159.794 2935.4C156.22 2963.98 152.647 2992.57 148.966 3022.02C131.101 3004.16 113.235 2986.29 94.8281 2967.88C82.4338 2972.24 82.4338 2972.24 69.7893 2976.68C17.2512 2993.6 -35.9219 3007.79 -89.2408 3022.02C-83.8535 3051.87 -83.8535 3051.87 -67.5857 3076.16C-42.3496 3080.7 -42.3496 3080.7 -13.4478 3076.16C-4.96167 3069.02 3.52441 3061.87 12.2678 3054.51C48.7383 3026.72 71.7471 3029.34 116.483 3032.85C116.483 3050.72 116.483 3068.58 116.483 3086.99C137.922 3090.57 159.361 3094.14 181.449 3097.82C195.741 3079.95 210.034 3062.09 224.759 3043.68C217.613 3036.53 210.467 3029.39 203.104 3022.02C207.164 2993.6 207.164 2993.6 213.932 2967.88C231.35 2963.19 231.35 2963.19 249.121 2958.41C293.603 2946.34 293.603 2946.34 333.035 2924.57C341.824 2896.9 341.824 2896.9 343.863 2870.43C333.143 2866.86 322.424 2863.28 311.38 2859.6Z" fill="#EEE8C4"/>
</svg>
