<svg width="1121" height="1408" viewBox="0 0 1121 1408" fill="none" xmlns="http://www.w3.org/2000/svg">
<path d="M1711.26 -2057C1743.74 -2046.17 1743.74 -2046.17 1754.02 -2027.31C1756.66 -2019.69 1759.3 -2012.06 1762.01 -2004.21C1766.1 -1992.86 1766.1 -1992.86 1770.26 -1981.29C1776.22 -1959.55 1776.22 -1959.55 1776.22 -1927.06C1783.37 -1927.06 1790.52 -1927.06 1797.88 -1927.06C1801.9 -1936.78 1801.9 -1936.78 1806 -1946.69C1827.93 -1985.08 1853.97 -1999.9 1895.33 -2013.69C1961.42 -2020.35 2008.54 -2011.22 2068.57 -1981.2C2127.91 -1952.07 2166.07 -1943.48 2230.98 -1948.72C2260.63 -1958.76 2260.63 -1958.76 2285.12 -1970.38C2295.84 -1970.38 2306.56 -1970.38 2317.6 -1970.38C2346.63 -1932.41 2355.45 -1898.28 2360.91 -1851.27C2382.35 -1861.99 2403.79 -1872.71 2425.88 -1883.75C2420.68 -1855.67 2414.74 -1840.02 2397.46 -1816.75C2379.17 -1779.35 2377.66 -1755.79 2383.46 -1714.94C2400.21 -1670.95 2433.05 -1644.13 2467.79 -1613.51C2496.38 -1586.08 2510.59 -1565.22 2515 -1525.66C2513.7 -1463.86 2513.7 -1463.86 2501.67 -1439.8C2563.73 -1438.12 2619.62 -1443.56 2680.33 -1456.04C2688.2 -1457.59 2696.07 -1459.14 2704.18 -1460.73C2723.31 -1464.51 2742.43 -1468.39 2761.53 -1472.28C2758.48 -1489.9 2755.3 -1507.49 2752.06 -1525.07C2750.3 -1534.87 2748.54 -1544.67 2746.73 -1554.76C2741.72 -1582.35 2741.72 -1582.35 2718.22 -1602.22C2680.33 -1605.83 2680.33 -1605.83 2642.43 -1602.22C2631.71 -1591.5 2631.71 -1591.5 2620.78 -1580.56C2620.78 -1566.27 2620.78 -1551.98 2620.78 -1537.25C2652.93 -1526.53 2652.93 -1526.53 2685.74 -1515.59C2682.17 -1504.87 2678.6 -1494.15 2674.91 -1483.11C2632 -1479.74 2605.73 -1479.59 2567.31 -1500.03C2544.98 -1526.42 2544.98 -1526.42 2541.6 -1567.03C2542.72 -1578.64 2543.83 -1590.25 2544.98 -1602.22C2512.82 -1607.58 2512.82 -1607.58 2480.02 -1613.05C2472.57 -1637.41 2472.57 -1637.41 2469.19 -1667.19C2484.75 -1692.23 2484.75 -1692.23 2501.67 -1710.5C2492.96 -1718.09 2484.25 -1725.69 2475.28 -1733.51C2444.18 -1768.4 2437.65 -1783.48 2436.71 -1829.61C2446.86 -1866.15 2446.86 -1866.15 2458.36 -1894.58C2469.08 -1894.58 2479.8 -1894.58 2490.84 -1894.58C2494.86 -1883.19 2498.88 -1871.8 2503.03 -1860.06C2528.74 -1801.97 2563.95 -1774.38 2621.92 -1751.19C2634.27 -1746.7 2646.62 -1742.2 2659.35 -1737.57C2714.5 -1717.49 2748.01 -1703.27 2783.19 -1656.36C2789.67 -1648.1 2796.14 -1639.83 2802.81 -1631.32C2820.92 -1590.35 2818.6 -1560.26 2815.67 -1515.59C2812.1 -1508.45 2808.53 -1501.3 2804.84 -1493.94C2816 -1499.8 2816 -1499.8 2827.39 -1505.78C2842.02 -1513.32 2842.02 -1513.32 2856.95 -1521.01C2866.62 -1526.03 2876.3 -1531.06 2886.26 -1536.23C2913.12 -1548.08 2913.12 -1548.08 2945.6 -1548.08C2939.2 -1495.6 2924.17 -1454.88 2902.29 -1407.31C2915.25 -1409.77 2928.2 -1412.23 2941.54 -1414.76C2988.72 -1420.32 3014.03 -1413.38 3053.88 -1385.66C3102.87 -1343.81 3124.16 -1299.21 3145.24 -1238.8C3174.66 -1156.22 3214.63 -1119.59 3292.09 -1082.47C3292.09 -1071.75 3292.09 -1061.03 3292.09 -1049.98C3205.5 -1034.33 3205.5 -1034.33 3164.19 -1052.69C3156.37 -1058.94 3148.55 -1065.2 3140.5 -1071.64C3132.24 -1077.67 3123.97 -1083.7 3115.46 -1089.91C3109.43 -1094.6 3103.4 -1099.29 3097.19 -1104.12C3093.62 -1093.41 3090.04 -1082.69 3086.36 -1071.64C3055.23 -1069.61 3055.23 -1069.61 3021.4 -1071.64C2999.74 -1104.12 2999.74 -1104.12 2999.74 -1147.44C2988.13 -1146.32 2976.52 -1145.2 2964.55 -1144.05C2923.95 -1147.44 2923.95 -1147.44 2897.56 -1170.45C2878.17 -1206.11 2876.19 -1226.55 2880.64 -1266.55C2884.21 -1273.69 2887.78 -1280.84 2891.47 -1288.2C2902.18 -1284.63 2912.9 -1281.06 2923.95 -1277.38C2927.52 -1259.51 2931.09 -1241.64 2934.78 -1223.23C2960.94 -1220.52 2960.94 -1220.52 2988.91 -1223.23C3013.71 -1253.72 3013.71 -1253.72 3009.89 -1288.2C3002.52 -1322.1 3002.52 -1322.1 2975.38 -1340.99C2944.63 -1353.57 2924.3 -1355.99 2891.47 -1353.17C2850.93 -1272.09 2835.17 -1183.83 2837.33 -1093.3C2842.69 -1097.09 2848.05 -1100.89 2853.57 -1104.8C2894.53 -1120.16 2927.06 -1119.61 2967.26 -1104.12C2996.47 -1081.36 3022.46 -1057.05 3048.55 -1030.78C3077.86 -1004.59 3104.03 -988.746 3140.5 -974.188C3184.12 -982.32 3211.87 -992.896 3248.78 -1017.5C3259.5 -1017.5 3270.21 -1017.5 3281.26 -1017.5C3274.11 -996.06 3266.97 -974.621 3259.6 -952.531C3273.9 -948.958 3288.19 -945.385 3302.91 -941.703C3302.91 -930.983 3302.91 -920.263 3302.91 -909.219C3296.26 -907.376 3289.6 -905.534 3282.74 -903.635C3269.61 -899.699 3269.61 -899.699 3256.22 -895.684C3247.55 -893.171 3238.88 -890.659 3229.95 -888.07C3199.4 -873.929 3188.88 -863.124 3172.98 -833.422C3167.52 -797.717 3167.52 -797.717 3166.89 -758.979C3164.81 -700.527 3161.6 -646.006 3126.29 -597.233C3102.88 -580.761 3081.98 -577.344 3053.88 -573.547C3087.64 -526.236 3124.15 -497.471 3172.31 -466.619C3178.89 -462.125 3185.47 -457.63 3192.25 -452.999C3222.95 -433.128 3242.69 -421.662 3279.74 -423.434C3303.93 -430.936 3303.93 -430.936 3317.12 -451.054C3328.62 -489.706 3332.05 -526.091 3313.74 -562.719C3269.41 -574.495 3269.41 -574.495 3227.12 -562.719C3232.38 -528.904 3237.93 -497.795 3248.78 -465.266C3181.46 -488.917 3181.46 -488.917 3162.16 -519.406C3158.53 -552.062 3156.15 -574.607 3162.16 -606.031C3183.81 -633.102 3183.81 -633.102 3205.47 -649.344C3189.39 -676.143 3189.39 -676.143 3172.98 -703.484C3185.84 -725.141 3185.84 -725.141 3205.47 -746.797C3234.56 -749.504 3234.56 -749.504 3259.6 -746.797C3258.49 -759.75 3257.37 -772.703 3256.22 -786.049C3256.22 -821.951 3261.14 -842.194 3283.29 -870.644C3313.73 -898.381 3327.52 -906.912 3367.88 -909.219C3366.32 -900.286 3364.75 -891.352 3363.14 -882.148C3361.13 -869.642 3359.12 -857.135 3357.05 -844.25C3354.15 -830.627 3351.25 -817.004 3348.25 -802.968C3341.43 -747.863 3365.1 -708.196 3389.53 -660.172C3419.95 -596.654 3430.25 -545.31 3411.19 -476.094C3388.99 -435.389 3373.95 -415.175 3335.4 -389.469C3371.13 -371.602 3406.86 -353.736 3443.67 -335.328C3443.67 -324.608 3443.67 -313.888 3443.67 -302.844C3390.08 -281.404 3390.08 -281.404 3335.4 -259.531C3347.68 -247.471 3359.96 -235.412 3372.62 -222.986C3410 -180.06 3422.39 -147.837 3424.3 -91.23C3419.72 -37.8834 3400.87 4.55859 3371.94 49.0703C3345.63 96.9121 3341.14 140.056 3352.86 192.416C3360.78 218.937 3369.27 245.032 3378.71 271.047C3326.21 263.295 3306.01 245.616 3270.43 206.078C3266.86 202.505 3263.28 198.932 3259.6 195.25C3258.83 178.799 3258.69 162.314 3258.93 145.847C3259.02 136.899 3259.12 127.952 3259.22 118.734C3259.41 108.37 3259.41 108.37 3259.6 97.7969C3252.96 100.016 3246.32 102.236 3239.47 104.522C3231.82 105.876 3224.17 107.23 3216.29 108.625C3191.93 87.6455 3191.93 87.6455 3172.98 65.3125C3193.28 13.8789 3193.28 13.8789 3205.47 -10.4844C3191.17 -17.631 3176.88 -24.7775 3162.16 -32.1406C3155.54 -110.185 3155.54 -110.185 3187.19 -151.25C3216.29 -172.906 3216.29 -172.906 3248.78 -172.906C3244.98 -164.866 3241.18 -156.827 3237.27 -148.543C3226.63 -117.333 3226.77 -105.645 3237.95 -75.4531C3269.53 -72.7438 3269.53 -72.7438 3302.91 -75.4531C3328.09 -113.222 3328.19 -128.526 3324.57 -172.906C3317.08 -197.842 3317.08 -197.842 3302.91 -216.219C3269.39 -231.279 3269.39 -231.279 3233.21 -212.158C3168.44 -178.014 3111.43 -131.173 3053.88 -86.2812C3064.19 -81.368 3074.51 -76.4547 3085.14 -71.3926C3130.73 -47.593 3146.1 -26.1581 3162.16 22C3163.56 58.1768 3164.84 94.2883 3164.9 130.493C3166.4 172.711 3171.45 193.281 3197.64 226.931C3237.29 257.137 3265.32 262.019 3313.74 271.047C3292.09 303.531 3292.09 303.531 3269.08 310.976C3262.38 312.092 3255.68 313.209 3248.78 314.359C3259.5 328.653 3270.21 342.946 3281.26 357.672C3277.69 364.818 3274.11 371.965 3270.43 379.328C3264.93 376.201 3259.43 373.075 3253.77 369.854C3189.89 335.01 3189.89 335.01 3118.84 336.016C3079.7 359.486 3045.72 388.627 3012.13 419.384C2973.27 454.819 2946.86 477.96 2891.47 476.781C2869.57 466.439 2847.88 455.656 2826.5 444.297C2831.42 473.179 2836.39 502.052 2841.39 530.922C2842.76 538.976 2844.12 547.03 2845.53 555.327C2854.92 609.296 2866.79 661.998 2880.64 715C2948.2 706.523 2948.2 706.523 3001.77 668.304C3013.05 639.318 3013.05 639.318 3004.48 609.426C2991.2 583.323 2991.2 583.323 2965.91 576.265C2959.21 575.595 2952.51 574.925 2945.6 574.234C2938.46 595.674 2931.31 617.114 2923.95 639.203C2909.66 635.63 2895.36 632.057 2880.64 628.375C2875.42 560.513 2875.42 560.513 2897.56 526.861C2931.29 504.367 2959.73 501.515 2999.74 498.438C3000.41 489.951 3001.08 481.464 3001.77 472.721C3010.57 444.297 3010.57 444.297 3034.93 428.055C3064.71 422.641 3064.71 422.641 3095.16 437.529C3102.98 443.336 3110.79 449.143 3118.84 455.125C3125.54 446.192 3132.24 437.259 3139.15 428.055C3159.77 407.018 3170.37 401.37 3199.92 397.008C3272.88 396.797 3272.88 396.797 3302.91 411.812C3292.09 444.297 3292.09 444.297 3273.6 454.66C3266.08 457.717 3258.56 460.773 3250.81 463.923C3179.62 498.123 3162.39 551.301 3137.12 622.961C3110.88 694.346 3078.44 735.204 3010.57 769.141C2993.89 769.893 2977.18 770.056 2960.49 769.817C2951.64 769.72 2942.79 769.622 2933.68 769.521C2923.5 769.333 2923.5 769.333 2913.12 769.141C2918.15 783.21 2918.15 783.21 2923.27 797.564C2933.96 831.527 2940.58 863.894 2945.6 899.078C2900.19 892.589 2858.87 882.024 2815.67 866.594C2816.17 872.875 2816.68 879.156 2817.2 885.627C2820.03 947.021 2813.94 980.69 2772.36 1029.02C2733.11 1064.36 2697.71 1081.88 2647.84 1098.72C2577.02 1124.94 2540.4 1149.4 2503.7 1216.48C2499.46 1226.08 2495.22 1235.68 2490.84 1245.58C2476.55 1242 2462.26 1238.43 2447.53 1234.75C2439.23 1141.39 2439.23 1141.39 2459.59 1104.81C2474.6 1087.22 2474.6 1087.22 2501.67 1061.5C2496.09 1057.26 2490.51 1053.01 2484.75 1048.64C2469.19 1029.02 2469.19 1029.02 2471.22 1001.27C2480.02 974.875 2480.02 974.875 2501.67 953.219C2515.96 953.219 2530.26 953.219 2544.98 953.219C2543.64 941.605 2542.3 929.992 2540.92 918.027C2544.98 877.422 2544.98 877.422 2573.41 851.028C2611.73 833.284 2633.36 827.498 2674.91 834.109C2685.63 850.189 2685.63 850.189 2696.57 866.594C2671.56 877.313 2646.55 888.033 2620.78 899.078C2623.77 920.093 2623.77 920.093 2631.6 942.391C2662.19 967.381 2662.19 967.381 2697.25 962.693C2729.16 956.345 2729.16 956.345 2743.94 935.623C2752.97 901.3 2752.06 869.42 2750.71 834.109C2664.12 806.517 2581.53 794.978 2490.84 790.797C2501.56 806.877 2501.56 806.877 2512.5 823.281C2519.45 859.3 2522.2 875.591 2512.5 909.906C2490.21 939.957 2466.03 965.859 2439.54 992.259C2403.93 1029.97 2384.31 1058.43 2377.83 1110.23C2383.34 1154.28 2395.89 1170.46 2425.88 1202.27C2429.45 1209.41 2433.03 1216.56 2436.71 1223.92C2429.56 1231.07 2422.41 1238.22 2415.05 1245.58C2397.19 1231.28 2379.32 1216.99 2360.91 1202.27C2357.34 1220.13 2353.77 1238 2350.09 1256.41C2330.46 1250.99 2330.46 1250.99 2306.78 1234.75C2297.4 1212.95 2290.49 1191.28 2284.11 1168.43C2271.06 1141.43 2258.35 1137.82 2230.98 1126.47C2208.95 1122.31 2208.95 1122.31 2186.02 1121.14C2177.61 1120.43 2169.2 1119.72 2160.54 1118.98C2143.04 1117.66 2125.53 1116.42 2108.01 1115.26C2053.74 1110.49 2020.45 1103.43 1981.95 1061.5C1967.74 1031.72 1967.74 1031.72 1960.29 1007.36C1870.13 1106.58 1870.13 1106.58 1827.66 1228.66C1828.55 1237.82 1829.44 1246.97 1830.36 1256.41C1869.7 1281.58 1903.56 1282.31 1949.47 1278.06C1972.77 1243.11 1973.3 1231.67 1971.12 1191.44C1929.81 1175.55 1903.01 1186.74 1862.84 1202.27C1876.45 1160.31 1887.88 1136.15 1927.81 1115.64C1994.53 1108.62 1994.53 1108.62 2024.58 1131.88C2028.38 1137.24 2032.17 1142.6 2036.09 1148.12C2045.91 1144.1 2055.74 1140.09 2065.86 1135.94C2101.05 1126.47 2101.05 1126.47 2126.09 1133.24C2144.36 1148.12 2144.36 1148.12 2153.16 1169.78C2155.19 1191.44 2155.19 1191.44 2144.36 1213.09C2157.09 1211.75 2169.82 1210.41 2182.94 1209.03C2232.48 1208.86 2256.32 1227.27 2292.18 1259.62C2308.42 1280.14 2313.21 1295.81 2317.6 1321.38C2307.55 1319.59 2297.5 1317.8 2287.15 1315.96C2191.81 1303.27 2125.69 1304.46 2040.48 1351.79C1984.09 1379.71 1929.92 1382.51 1870.29 1363.33C1831.52 1346.7 1810.18 1324.55 1787.05 1288.89C1772.76 1328.2 1758.47 1367.5 1743.74 1408C1729.45 1404.43 1715.16 1400.85 1700.43 1397.17C1689.1 1372.43 1689.1 1372.43 1681.48 1342.35C1678.86 1332.4 1676.23 1322.45 1673.53 1312.2C1671.69 1304.51 1669.85 1296.81 1667.95 1288.89C1660.8 1288.89 1653.66 1288.89 1646.29 1288.89C1643.84 1295.37 1641.38 1301.84 1638.85 1308.52C1616.71 1345.42 1590.61 1358.55 1549.86 1370.99C1464.67 1387.5 1396.08 1347.85 1321.47 1310.55C1300.51 1309.49 1279.51 1309.14 1258.53 1309.19C1241.68 1309.15 1241.68 1309.15 1224.48 1309.11C1194.2 1310.43 1166.85 1314.51 1137.4 1321.38C1137.4 1328.52 1137.4 1335.67 1137.4 1343.03C1130.25 1339.46 1123.1 1335.88 1115.74 1332.2C1174.53 1230.77 1174.53 1230.77 1213.19 1213.09C1242.63 1210.65 1270.15 1211.61 1299.81 1213.09C1299.81 1191.65 1299.81 1170.21 1299.81 1148.12C1336.35 1141.36 1336.35 1141.36 1375.6 1137.3C1382.75 1144.44 1389.9 1151.59 1397.26 1158.95C1402.84 1151.81 1408.42 1144.66 1414.18 1137.3C1440.57 1115.64 1440.57 1115.64 1477.79 1110.23C1531.81 1117.81 1554.83 1143.28 1592.16 1180.61C1595.73 1191.33 1599.3 1202.05 1602.98 1213.09C1593.38 1209.74 1583.78 1206.39 1573.88 1202.94C1543.79 1193.29 1514.94 1186.09 1483.88 1180.61C1475.11 1212.17 1470.69 1228.92 1483.2 1259.79C1487 1265.82 1490.8 1271.85 1494.71 1278.06C1549.09 1281.26 1580.2 1277.9 1624.64 1245.58C1618.45 1200.06 1603.03 1170.13 1577.94 1131.88C1571.51 1121.94 1565.08 1112.01 1558.45 1101.77C1523.09 1046.68 1523.09 1046.68 1473.05 1007.36C1472.38 1015.4 1471.71 1023.44 1471.02 1031.72C1458.92 1072.7 1444.38 1082.29 1408.09 1104.81C1364.76 1113.83 1320.75 1114.81 1276.65 1117.08C1222.41 1120.62 1222.41 1120.62 1175.38 1145.97C1159.47 1169.17 1150.14 1188.28 1142.13 1215.12C1135.32 1237.92 1135.32 1237.92 1126.57 1256.41C1115.85 1259.98 1105.13 1263.55 1094.09 1267.23C1094.09 1245.79 1094.09 1224.35 1094.09 1202.27C1056.57 1223.71 1056.57 1223.71 1018.29 1245.58C1018.29 1213.09 1018.29 1213.09 1039.95 1189.41C1063.12 1156.82 1069.26 1135.25 1067.23 1095.21C1056.29 1050.7 1026.33 1019.44 996.638 985.703C986.466 973.539 976.313 961.359 966.185 949.158C958.369 939.778 950.553 930.398 942.5 920.734C926.157 888.048 929.776 859.307 931.672 823.281C938.819 812.562 945.965 801.842 953.328 790.797C860.85 796.27 772.791 813.182 682.638 834.109C691.892 898.908 691.892 898.908 723.241 954.572C756.2 967.39 778.801 961.661 812.569 953.219C816.142 935.352 819.715 917.486 823.397 899.078C801.958 891.932 780.519 884.785 758.431 877.422C758.431 866.702 758.431 855.982 758.431 844.938C804.23 833.945 827.691 831.259 871.444 850.352C899.19 877.422 899.19 877.422 903.25 918.027C901.24 935.447 901.24 935.447 899.19 953.219C907.676 954.559 916.162 955.899 924.905 957.279C953.328 964.047 953.328 964.047 974.983 985.703C976.336 1014.13 976.336 1014.13 974.983 1039.84C967.837 1043.42 960.69 1046.99 953.328 1050.67C965.108 1075.14 977.2 1097.22 992.578 1119.7C1010.46 1153.84 1011.6 1175.03 1007.47 1213.09C1000.32 1223.81 993.173 1234.53 985.81 1245.58C975.091 1245.58 964.372 1245.58 953.328 1245.58C950.955 1239.83 948.582 1234.08 946.137 1228.15C904.456 1135.29 838.414 1111.05 746.546 1076.05C686.433 1048.22 651.728 1015.57 628.5 953.219C624.042 886.339 624.042 886.339 639.328 855.766C592.877 873.632 546.427 891.499 498.569 909.906C503.954 856.057 515.384 816.373 541.879 769.141C535.068 769.894 528.257 770.648 521.239 771.425C455.585 775.578 415.618 767.894 365.127 724.686C334.067 689.57 319.99 650.118 303.672 606.719C274.293 537.961 252.962 489.323 184.569 455.125C173.85 451.552 163.13 447.979 152.086 444.297C152.086 433.577 152.086 422.857 152.086 411.812C196.27 389.72 223.743 386.459 271.19 400.984C294.992 417.468 314.83 435.322 336.155 455.125C345.2 446.415 345.2 446.415 354.427 437.529C379.466 422.641 379.466 422.641 408.565 428.055C433.603 444.297 433.603 444.297 442.401 472.721C443.071 481.207 443.741 489.694 444.431 498.438C458.835 496.762 458.835 496.762 473.53 495.054C509.397 498.438 509.397 498.438 540.526 520.771C568.629 559.62 568.133 581.464 563.534 628.375C552.815 631.948 542.096 635.521 531.052 639.203C520.332 617.763 509.613 596.324 498.569 574.234C477.265 574.573 477.265 574.573 455.259 585.062C441.133 617.505 441.133 617.505 433.603 650.031C455.911 678.68 455.911 678.68 487.741 704.172C527.912 708.701 527.912 708.701 563.534 704.172C589.339 618.326 605.674 533.092 617.672 444.297C601.258 453.007 601.258 453.007 584.513 461.893C549.989 476.048 524.007 481.049 487.403 468.237C445.93 442.727 414.034 406.146 380.946 370.826C352.021 340.842 343.279 336.714 301.642 332.632C250.735 336.805 227.695 353.113 184.569 379.328C177.423 375.755 170.277 372.182 162.914 368.5C173.633 350.634 184.352 332.767 195.397 314.359C177.531 307.213 159.666 300.066 141.259 292.703C141.259 285.557 141.259 278.41 141.259 271.047C147.916 269.204 154.574 267.362 161.433 265.464C215.826 249.957 215.826 249.957 260.362 216.906C286.641 164.345 284.662 111.685 284.766 54.2729C286.262 12.0068 291.101 -8.29517 317.714 -41.6998C341.703 -60.4893 362.23 -74.8474 390.293 -86.2812C275.528 -189.354 275.528 -189.354 130.431 -216.219C128.01 -200.904 125.794 -185.557 123.664 -170.199C122.408 -161.657 121.151 -153.115 119.857 -144.313C119.569 -115.284 126.469 -100.066 141.259 -75.4531C166.27 -75.4531 191.282 -75.4531 217.052 -75.4531C218.859 -101.619 218.859 -101.619 217.052 -129.594C209.906 -136.74 202.759 -143.887 195.397 -151.25C198.97 -161.97 202.543 -172.69 206.224 -183.734C234.69 -167.253 258.669 -152.943 282.017 -129.594C284.132 -106.161 284.132 -106.161 283.371 -79.5137C283.175 -70.6642 282.98 -61.8148 282.779 -52.6971C282.527 -45.9135 282.276 -39.1299 282.017 -32.1406C260.579 -21.4208 260.579 -21.4208 238.707 -10.4844C244.29 -4.45435 249.873 1.57544 255.625 7.78809C271.19 32.8281 271.19 32.8281 270.513 61.252C260.362 86.9688 260.362 86.9688 240.06 101.857C217.052 108.625 217.052 108.625 184.569 97.7969C185.7 108.58 185.7 108.58 186.853 119.58C191.534 195.926 191.534 195.926 171.627 224.943C142.953 249.295 113.924 266.705 76.2931 271.047C77.8563 262.114 79.4196 253.18 81.0302 243.977C83.04 231.47 85.0499 218.964 87.1207 206.078C90.0238 192.678 92.927 179.279 95.9181 165.473C103.053 107.95 78.2762 62.377 54.6379 11.1719C25.6547 -52.3848 16.2592 -92.9504 32.9828 -162.078C55.041 -201.05 77.0523 -227.806 108.776 -259.531C73.0448 -273.824 37.3138 -288.118 0.5 -302.844C0.5 -313.564 0.5 -324.283 0.5 -335.328C16.2677 -342.596 32.0633 -349.803 47.8707 -356.984C56.6639 -361.004 65.4571 -365.024 74.5167 -369.166C97.9483 -378.641 97.9483 -378.641 119.603 -378.641C119.603 -385.787 119.603 -392.934 119.603 -400.297C113.127 -403.2 106.651 -406.104 99.9784 -409.095C62.0994 -429.659 46.6964 -445.779 32.9828 -486.922C22.9262 -559.994 32.776 -611.959 66.1422 -677.768C97.5535 -739.93 104.281 -777.484 87.1207 -844.25C85.1108 -856.98 83.1009 -869.71 81.0302 -882.825C79.4669 -891.535 77.9037 -900.245 76.2931 -909.219C112.597 -906.107 130.859 -898.086 160.884 -876.734C192.896 -832.829 189.722 -799.361 184.569 -746.797C222.087 -741.437 222.087 -741.437 260.362 -735.969C269.129 -704.407 273.555 -687.663 261.039 -656.788C257.242 -650.758 253.446 -644.728 249.534 -638.516C256.904 -630.922 264.274 -623.329 271.866 -615.506C292.845 -584.375 292.845 -584.375 292.845 -551.214C280.617 -515.293 268.231 -499.54 238.707 -476.094C227.988 -472.521 217.268 -468.947 206.224 -465.266C206.224 -504.358 216.629 -536.277 227.879 -573.547C189.777 -577.011 169.192 -577.572 136.522 -556.628C115.949 -530.04 115.949 -530.04 120.957 -491.659C128.485 -453.458 128.485 -453.458 152.086 -421.953C247.11 -432.59 328.044 -491.88 390.293 -562.719C380.244 -567.185 370.194 -571.652 359.841 -576.254C324.562 -595.623 312.283 -604.255 292.845 -638.516C288.446 -675.61 288.446 -675.61 287.431 -717.696C285.139 -802.45 285.139 -802.45 249.534 -876.734C214.594 -895.445 179.148 -908.601 141.259 -920.047C141.259 -927.193 141.259 -934.34 141.259 -941.703C168.057 -952.423 168.057 -952.423 195.397 -963.359C181.104 -977.652 166.812 -991.946 152.086 -1006.67C171.034 -1014.12 171.034 -1014.12 195.397 -1017.5C201.426 -1012.36 207.456 -1007.23 213.668 -1001.93C246.764 -979.572 270.973 -977.841 310.44 -979.009C358.868 -990.321 389.114 -1026.03 422.776 -1060.81C464.589 -1101.56 495.316 -1110.25 551.776 -1116.22C574.362 -1114.95 574.362 -1114.95 606.845 -1093.3C608.438 -1147.33 603.196 -1194.91 591.28 -1247.6C588.391 -1260.61 585.502 -1273.62 582.525 -1287.02C574.843 -1320.76 574.843 -1320.76 563.534 -1353.17C518.823 -1355.25 483.033 -1355.78 444.431 -1331.52C432.487 -1292.27 430.994 -1262.06 444.431 -1223.23C465.87 -1223.23 487.308 -1223.23 509.397 -1223.23C512.97 -1244.67 516.543 -1266.11 520.224 -1288.2C534.517 -1284.63 548.809 -1281.06 563.534 -1277.38C568.802 -1198.36 568.802 -1198.36 545.263 -1164.36C517.817 -1145.81 498.989 -1139.21 466.086 -1136.61C455.367 -1141.97 455.367 -1141.97 444.431 -1147.44C444.878 -1138.95 445.324 -1130.46 445.784 -1121.72C444.431 -1093.3 444.431 -1093.3 422.776 -1071.64C383.607 -1067.52 359.066 -1073.3 325.328 -1093.3C316.841 -1086.37 308.355 -1079.45 299.612 -1072.32C255.172 -1037.4 230.155 -1037.14 173.741 -1039.16C166.595 -1042.73 159.449 -1046.3 152.086 -1049.98C152.086 -1060.7 152.086 -1071.42 152.086 -1082.47C161.884 -1086.82 161.884 -1086.82 171.88 -1091.27C239.257 -1124.3 267.573 -1153.15 292.845 -1223.23C295.846 -1232.14 298.847 -1241.04 301.938 -1250.22C326.977 -1320.93 357.719 -1367.55 422.776 -1407.31C470.658 -1420.08 493.669 -1419.37 541.879 -1407.31C524.014 -1453.77 506.148 -1500.22 487.741 -1548.08C544.724 -1538.58 577.948 -1528.02 628.5 -1504.77C627.998 -1510.92 627.495 -1517.08 626.977 -1523.42C624.635 -1573.52 625.54 -1616.79 653.919 -1660.42C700.641 -1706.37 768.648 -1731.28 829.614 -1752.84C903.657 -1779.87 930.25 -1824.9 964.155 -1894.58C974.874 -1891 985.594 -1887.43 996.638 -1883.75C1011.24 -1805.43 1011.24 -1805.43 993.931 -1767.35C984.552 -1755.29 984.552 -1755.29 974.983 -1742.98C968.953 -1734.72 962.924 -1726.46 956.711 -1717.94C952.021 -1711.91 947.332 -1705.88 942.5 -1699.67C958.579 -1688.95 958.579 -1688.95 974.983 -1678.02C978.366 -1650.95 978.366 -1650.95 974.983 -1623.88C953.328 -1602.22 953.328 -1602.22 924.905 -1600.87C916.419 -1601.31 907.933 -1601.76 899.19 -1602.22C900.306 -1590.61 901.423 -1578.99 902.573 -1567.03C899.19 -1526.42 899.19 -1526.42 877.534 -1500.03C834.307 -1477.51 806.712 -1479.84 758.431 -1483.11C754.858 -1493.83 751.285 -1504.55 747.603 -1515.59C772.615 -1522.74 797.627 -1529.89 823.397 -1537.25C823.397 -1558.69 823.397 -1580.13 823.397 -1602.22C766.136 -1607.84 766.136 -1607.84 715.797 -1587.33C692.175 -1551.2 692.533 -1526.02 693.466 -1483.11C779.949 -1456.32 862.575 -1433.15 953.328 -1428.97C949.88 -1435.39 946.433 -1441.81 942.881 -1448.43C925.61 -1485.18 925.625 -1507.76 931.672 -1548.08C958.2 -1586.6 991.365 -1618.8 1024.55 -1651.58C1053.54 -1682.32 1061.64 -1699.94 1067.69 -1742.31C1064.92 -1790.45 1043.3 -1821.75 1018.29 -1862.09C1021.87 -1869.24 1025.44 -1876.39 1029.12 -1883.75C1046.99 -1873.03 1064.85 -1862.31 1083.26 -1851.27C1090.4 -1865.56 1097.55 -1879.85 1104.91 -1894.58C1115.63 -1891 1126.35 -1887.43 1137.4 -1883.75C1146.41 -1862.49 1151.76 -1841.19 1157.57 -1818.87C1176.58 -1785.29 1199.26 -1778.07 1234.84 -1764.64C1275.96 -1760.47 1316.36 -1759.9 1357.67 -1759.27C1403.51 -1752.95 1426.97 -1740.06 1462.22 -1710.5C1471.7 -1675.31 1471.7 -1675.31 1473.05 -1645.53C1535.16 -1701.99 1591.43 -1773.73 1624.64 -1851.27C1623.81 -1874.42 1623.81 -1874.42 1613.81 -1894.58C1569.59 -1924.06 1547.27 -1920.41 1494.71 -1916.23C1469.91 -1879.04 1471.12 -1862.25 1473.05 -1818.78C1505.21 -1825.93 1537.37 -1833.07 1570.5 -1840.44C1574.07 -1833.29 1577.65 -1826.14 1581.33 -1818.78C1535.56 -1767.78 1535.56 -1767.78 1500.12 -1754.49C1467.57 -1753.68 1447.76 -1760.66 1418.91 -1775.47C1408.19 -1786.19 1408.19 -1786.19 1397.26 -1797.12C1390.11 -1789.98 1382.97 -1782.83 1375.6 -1775.47C1348.53 -1772.76 1348.53 -1772.76 1321.47 -1775.47C1299.81 -1797.12 1299.81 -1797.12 1298.46 -1830.96C1298.9 -1841.24 1299.35 -1851.51 1299.81 -1862.09C1290.43 -1859.64 1281.05 -1857.18 1271.39 -1854.65C1226.44 -1850.49 1207.48 -1859.52 1169.88 -1883.75C1138.69 -1915.98 1137.4 -1923.47 1137.4 -1970.38C1148.12 -1966.8 1158.84 -1963.23 1169.88 -1959.55C1260.33 -1935.09 1310.78 -1951.73 1394.85 -1990.36C1463.75 -2021.03 1513.51 -2026.6 1584.03 -2000.83C1616.48 -1979.44 1641.7 -1955.63 1667.95 -1927.06C1669.62 -1938.12 1669.62 -1938.12 1671.33 -1949.4C1680.37 -1988.02 1694.96 -2020.86 1711.26 -2057ZM2306.78 -1937.89C2301.86 -1929.4 2296.95 -1920.92 2291.89 -1912.17C2251.6 -1871.89 2210.26 -1869.14 2155.19 -1862.09C2153.85 -1855.62 2152.51 -1849.14 2151.13 -1842.47C2144.36 -1818.78 2144.36 -1818.78 2122.71 -1786.3C2082.4 -1781.13 2070.82 -1784.79 2036.09 -1807.95C2030.5 -1800.58 2024.92 -1793.21 2019.17 -1785.62C1992.78 -1764.64 1992.78 -1764.64 1954.2 -1765.32C1918.81 -1774.97 1905.37 -1778.96 1884.5 -1807.95C1880.93 -1815.1 1877.35 -1822.25 1873.67 -1829.61C1880.58 -1828.7 1887.49 -1827.79 1894.61 -1826.86C1903.56 -1825.76 1912.5 -1824.65 1921.72 -1823.52C1930.64 -1822.39 1939.56 -1821.26 1948.75 -1820.09C1956.13 -1819.66 1963.51 -1819.23 1971.12 -1818.78C1985.41 -1830.75 1985.41 -1830.75 1984.66 -1860.74C1984.3 -1893.41 1984.3 -1893.41 1971.12 -1914.88C1936.28 -1934.48 1901.19 -1934.15 1862.84 -1927.06C1830.72 -1907.18 1830.72 -1907.18 1808.71 -1883.75C1823.13 -1834.18 1842.97 -1795.33 1871.64 -1752.46C1878.86 -1741.49 1886.07 -1730.52 1893.51 -1719.21C1916.84 -1689.03 1940.41 -1667.94 1971.12 -1645.53C1977.49 -1660.61 1977.49 -1660.61 1983.98 -1675.99C2006.09 -1714.88 2017.79 -1724.32 2057.74 -1742.98C2096.27 -1747.38 2096.27 -1747.38 2138.27 -1748.4C2195.86 -1749.79 2236.24 -1754.45 2285.12 -1786.3C2299.45 -1806.97 2299.45 -1806.97 2305.42 -1830.29C2307.85 -1837.78 2310.28 -1845.28 2312.78 -1853C2318.45 -1873.01 2318.45 -1873.01 2317.6 -1894.58C2324.75 -1898.15 2331.9 -1901.72 2339.26 -1905.41C2332.11 -1905.41 2324.97 -1905.41 2317.6 -1905.41C2312.24 -1921.49 2312.24 -1921.49 2306.78 -1937.89ZM1722.09 -1851.27C1716.56 -1839.61 1711.03 -1827.96 1705.34 -1815.95C1660.26 -1724.25 1613.33 -1648.6 1541.54 -1575.71C1467.41 -1500.05 1394.8 -1406.16 1393.2 -1296.32C1394.77 -1213.05 1425.66 -1142.35 1483.88 -1082.47C1508.54 -1063.24 1533.7 -1045.81 1559.67 -1028.33C1573.67 -1052.68 1587.66 -1077.05 1601.63 -1101.42C1607.55 -1111.72 1607.55 -1111.72 1613.6 -1122.23C1624.59 -1141.41 1635.44 -1160.66 1646.29 -1179.92C1650.82 -1187.91 1655.34 -1195.89 1660 -1204.12C1673.96 -1237.69 1665.7 -1264.7 1657.12 -1299.03C1641.31 -1327.48 1641.31 -1327.48 1613.81 -1342.34C1573.81 -1340.76 1573.81 -1340.76 1538.02 -1331.52C1538.02 -1310.08 1538.02 -1288.64 1538.02 -1266.55C1555.88 -1259.4 1573.75 -1252.25 1592.16 -1244.89C1592.16 -1234.17 1592.16 -1223.45 1592.16 -1212.41C1578.36 -1217.03 1564.6 -1221.79 1550.88 -1226.62C1543.21 -1229.26 1535.55 -1231.89 1527.65 -1234.61C1495.5 -1249.55 1478 -1267.48 1462.22 -1299.03C1455.94 -1366.87 1455.94 -1366.87 1482.53 -1400.54C1527.42 -1434.88 1558.51 -1429.86 1613.81 -1428.97C1614.62 -1436.97 1615.43 -1444.96 1616.26 -1453.21C1627.17 -1537.32 1648.99 -1609.35 1700.43 -1678.02C1724.2 -1692.14 1724.2 -1692.14 1743.74 -1699.67C1750.96 -1685.23 1758.18 -1670.8 1765.4 -1656.36C1768.97 -1649.44 1772.54 -1642.51 1776.22 -1635.38C1808.71 -1568.38 1820.9 -1502.51 1830.36 -1428.97C1836.77 -1429.6 1843.18 -1430.22 1849.78 -1430.87C1896.58 -1433.54 1920.77 -1433.57 1960.97 -1407.31C1984.22 -1371.32 1990.09 -1351.22 1987.15 -1309.14C1977.79 -1271.47 1958.87 -1255.87 1927.81 -1234.06C1886.53 -1225.26 1886.53 -1225.26 1852.02 -1223.23C1860.73 -1229.26 1869.44 -1235.29 1878.41 -1241.51C1907.79 -1264.05 1907.79 -1264.05 1916.31 -1294.97C1916.53 -1303.46 1916.75 -1311.94 1916.98 -1320.69C1896.63 -1345.57 1896.63 -1345.57 1863.52 -1345.73C1831.02 -1345.18 1831.02 -1345.18 1811.41 -1328.81C1781.98 -1287.83 1781.98 -1287.83 1778.04 -1238.25C1789.77 -1190.5 1811.6 -1152.99 1836.45 -1110.89C1841.05 -1102.92 1845.65 -1094.95 1850.39 -1086.74C1861.67 -1067.22 1873.07 -1047.77 1884.5 -1028.33C1959.95 -1078.61 2017.61 -1135.32 2046.91 -1223.23C2057.35 -1329.58 2046.02 -1407.19 1977.62 -1490.81C1953.73 -1518.85 1929.41 -1546.47 1904.88 -1573.94C1830.3 -1657.81 1774.42 -1746.85 1732.91 -1851.27C1729.34 -1851.27 1725.77 -1851.27 1722.09 -1851.27ZM1138.07 -1667.19C1118.85 -1631 1130.27 -1598.45 1137.4 -1558.91C1107.02 -1538.65 1095.03 -1534.25 1060.93 -1528.45C1038.17 -1523.8 1038.17 -1523.8 1018.29 -1515.59C999.865 -1489.88 999.865 -1489.88 996.638 -1461.45C1000.21 -1454.31 1003.78 -1447.16 1007.47 -1439.8C1029.2 -1450.61 1050.87 -1461.5 1072.43 -1472.66C1079.58 -1476.33 1086.72 -1480 1094.09 -1483.79C1104.81 -1489.33 1104.81 -1489.33 1115.74 -1494.99C1137.4 -1504.77 1137.4 -1504.77 1180.71 -1515.59C1180.71 -1547.75 1180.71 -1579.91 1180.71 -1613.05C1191.43 -1613.05 1202.15 -1613.05 1213.19 -1613.05C1224.02 -1591.39 1234.84 -1569.73 1245.67 -1548.08C1283.73 -1562.85 1283.73 -1562.85 1320.11 -1581.24C1352.23 -1595.41 1384.24 -1598.22 1418.91 -1602.22C1418.91 -1616.51 1418.91 -1630.8 1418.91 -1645.53C1413.55 -1650.89 1413.55 -1650.89 1408.09 -1656.36C1354.95 -1652.78 1354.95 -1652.78 1309.28 -1627.94C1288.98 -1613.05 1288.98 -1613.05 1259.21 -1616.43C1251.17 -1618.89 1243.13 -1621.34 1234.84 -1623.88C1231.27 -1641.74 1227.7 -1659.61 1224.02 -1678.02C1179.48 -1681.23 1179.48 -1681.23 1138.07 -1667.19ZM2220.16 -1678.02C2216.58 -1660.15 2213.01 -1642.28 2209.33 -1623.88C2185.64 -1615.75 2185.64 -1615.75 2155.19 -1613.05C2137.1 -1627.43 2119.05 -1641.87 2101.05 -1656.36C2066.3 -1659.99 2066.3 -1659.99 2036.09 -1656.36C2028.94 -1642.07 2021.79 -1627.77 2014.43 -1613.05C2036.2 -1591.28 2076.5 -1592.88 2106 -1588.09C2133.53 -1580.56 2133.53 -1580.56 2156.67 -1562.88C2163.33 -1558 2169.99 -1553.11 2176.84 -1548.08C2216.84 -1561.41 2234.78 -1582.81 2263.47 -1613.05C2263.47 -1580.89 2263.47 -1548.73 2263.47 -1515.59C2271.69 -1512.84 2279.91 -1510.09 2288.38 -1507.26C2299.14 -1503.53 2309.9 -1499.81 2320.99 -1495.97C2337 -1490.5 2337 -1490.5 2353.34 -1484.93C2381.54 -1472.73 2394.57 -1461.79 2415.05 -1439.8C2422.2 -1439.8 2429.34 -1439.8 2436.71 -1439.8C2445.04 -1465.19 2445.04 -1465.19 2447.53 -1493.94C2424.19 -1525.27 2401.88 -1532.2 2364.3 -1539.28C2355.55 -1541 2346.79 -1542.71 2337.78 -1544.48C2327.79 -1546.26 2327.79 -1546.26 2317.6 -1548.08C2310.84 -1579.21 2310.84 -1579.21 2306.78 -1613.05C2313.92 -1620.19 2321.07 -1627.34 2328.43 -1634.7C2317.41 -1657.86 2317.41 -1657.86 2295.95 -1678.02C2256.69 -1681.63 2256.69 -1681.63 2220.16 -1678.02ZM1711.26 -1580.56C1679.76 -1511.3 1679.97 -1436.03 1699.08 -1362.65C1707.75 -1330.25 1707.75 -1330.25 1732.91 -1320.69C1751.76 -1369.6 1757.5 -1410.48 1757.28 -1462.81C1757.33 -1475.79 1757.39 -1488.77 1757.45 -1502.14C1754.76 -1534.91 1750.13 -1553.09 1732.91 -1580.56C1725.77 -1580.56 1718.62 -1580.56 1711.26 -1580.56ZM1325.48 -1488.19C1318.57 -1481.15 1311.67 -1474.12 1304.55 -1466.87C1270.17 -1435.5 1250.53 -1424 1203.72 -1425.58C1195.7 -1426.52 1187.69 -1427.46 1179.44 -1428.42C1172.71 -1428.6 1165.98 -1428.78 1159.05 -1428.97C1151.91 -1421.82 1144.76 -1414.68 1137.4 -1407.31C1162.18 -1394.63 1187 -1382 1211.84 -1369.41C1218.88 -1365.8 1225.93 -1362.18 1233.2 -1358.46C1270.06 -1338.35 1270.06 -1338.35 1310.64 -1331.52C1312.73 -1338.58 1314.83 -1345.64 1316.98 -1352.92C1332.15 -1403.82 1347.58 -1454.51 1364.78 -1504.77C1341.72 -1507.24 1341.72 -1507.24 1325.48 -1488.19ZM2079.4 -1504.77C2098.03 -1445.77 2121.05 -1388.78 2144.36 -1331.52C2163.31 -1340.08 2182.26 -1348.65 2201.21 -1357.23C2211.76 -1362.01 2222.31 -1366.78 2233.18 -1371.7C2257.98 -1383.13 2282.45 -1394.92 2306.78 -1407.31C2279.86 -1434.23 2271.32 -1431 2234.37 -1431.68C2179.63 -1435.72 2153.8 -1452.25 2115.94 -1490.93C2101.79 -1507.22 2101.79 -1507.22 2079.4 -1504.77ZM639.328 -1407.31C641.421 -1400.38 643.515 -1393.44 645.672 -1386.29C648.491 -1376.92 651.311 -1367.56 654.216 -1357.91C656.979 -1348.74 659.743 -1339.57 662.59 -1330.12C665.633 -1319.86 668.675 -1309.6 671.81 -1299.03C675.537 -1287.81 679.264 -1276.59 683.103 -1265.02C696.541 -1210.83 699.838 -1157.67 703.616 -1102.09C714.503 -912.885 714.503 -912.885 812.569 -757.625C900.13 -688.218 999.337 -697.973 1104.91 -703.484C1098.36 -736.236 1091.17 -768.503 1083.26 -800.938C1080.61 -812.118 1077.95 -823.298 1075.22 -834.818C1054.7 -911.387 1054.7 -911.387 997.991 -962.683C961.449 -976.575 954.455 -974.59 915.431 -960.652C906.498 -954.399 897.565 -948.146 888.362 -941.703C887.901 -920.052 887.92 -898.386 888.362 -876.734C900.392 -862.263 900.392 -862.263 930.996 -864.553C963.24 -863.597 963.24 -863.597 985.81 -876.734C974.983 -844.25 974.983 -844.25 952.651 -830.715C904.419 -818.4 857.565 -819.869 813.246 -845.604C794.997 -877.808 792.182 -904.932 790.914 -941.703C808.382 -982.157 830.094 -1004.34 866.707 -1028.33C856.881 -1038.38 847.055 -1048.43 836.931 -1058.78C779.172 -1126.1 755.35 -1211.87 747.603 -1299.03C856.061 -1285.45 935.491 -1252.04 1018.29 -1179.92C1026.11 -1190.42 1033.93 -1200.91 1041.98 -1211.73C1060.85 -1234.04 1071.04 -1244.27 1098.15 -1256.4C1139.04 -1255.42 1166.71 -1242.74 1202.36 -1223.23C1228.92 -1189.74 1228.27 -1156.61 1224.02 -1114.95C1209.13 -1083.82 1209.13 -1083.82 1191.53 -1060.81C1184.39 -1060.81 1177.24 -1060.81 1169.88 -1060.81C1172.89 -1078.9 1172.89 -1078.9 1175.97 -1097.36C1184.14 -1134.72 1184.14 -1134.72 1169.88 -1158.27C1130.81 -1161.73 1130.81 -1161.73 1096.79 -1144.73C1080.66 -1122.14 1074.03 -1110.38 1072.43 -1082.47C1091.56 -1030.39 1110.61 -1010.22 1159.05 -985.016C1182.5 -976.435 1206.21 -968.557 1230.11 -961.329C1242.18 -957.602 1254.25 -953.875 1266.69 -950.036C1301.12 -939.942 1301.12 -939.942 1343.12 -941.703C1347.61 -1069.35 1343.6 -1155.33 1260.86 -1257.24C1179.28 -1320.39 1083.43 -1328.75 983.78 -1336.93C862.95 -1348.47 754.378 -1368.96 639.328 -1407.31ZM2741.23 -1387.01C2660.79 -1357.91 2583.95 -1344.29 2498.75 -1337.78C2488.36 -1336.95 2477.97 -1336.13 2467.26 -1335.29C2446.46 -1333.71 2425.65 -1332.3 2404.82 -1331.09C2322.1 -1324.99 2253.24 -1306.05 2189.7 -1250.98C2181.89 -1241.82 2174.07 -1232.67 2166.02 -1223.23C2158.2 -1214.75 2150.39 -1206.26 2142.33 -1197.52C2093.12 -1126.25 2095.57 -1047.31 2101.05 -963.359C2104.62 -956.213 2108.2 -949.066 2111.88 -941.703C2242.7 -957.929 2242.7 -957.929 2350.76 -1020.88C2362.22 -1053.73 2371 -1079.99 2371.74 -1114.95C2355.72 -1142.71 2355.72 -1142.71 2328.43 -1158.27C2299.12 -1156.75 2299.12 -1156.75 2274.29 -1147.44C2265.53 -1115.88 2261.1 -1099.13 2273.62 -1068.26C2277.41 -1062.23 2281.21 -1056.2 2285.12 -1049.98C2252.64 -1060.81 2252.64 -1060.81 2233.69 -1089.24C2217.41 -1133.2 2218.49 -1156.62 2230.98 -1201.58C2252.35 -1230.58 2266.87 -1242.23 2300.69 -1254.37C2335.11 -1256.04 2352.33 -1250.69 2382.57 -1234.06C2413.02 -1205.64 2413.02 -1205.64 2436.71 -1179.92C2446.98 -1189.75 2457.25 -1199.57 2467.84 -1209.7C2523.75 -1257.47 2590.77 -1290.61 2665.44 -1290.91C2675.71 -1290.02 2685.99 -1289.12 2696.57 -1288.2C2693.09 -1182.04 2648.25 -1096.45 2577.47 -1017.5C2587.96 -1014.82 2598.46 -1012.14 2609.27 -1009.38C2642.43 -995.844 2642.43 -995.844 2651.91 -977.571C2652.35 -969.308 2652.8 -961.045 2653.26 -952.531C2654.93 -933.771 2654.93 -933.771 2656.64 -914.633C2653.26 -876.734 2653.26 -876.734 2636.34 -851.018C2600.87 -827.366 2576.77 -823.316 2534.16 -822.594C2506.81 -830.999 2484.02 -841.987 2458.36 -855.078C2458.36 -862.225 2458.36 -869.371 2458.36 -876.734C2486.95 -873.161 2515.53 -869.588 2544.98 -865.906C2558.96 -890.443 2558.96 -890.443 2566.64 -920.047C2553.17 -946.975 2541.68 -959.329 2515.21 -973.511C2475.19 -974.622 2449.55 -961.15 2415.05 -941.703C2385.09 -892.386 2371.79 -841.6 2358.88 -786.049C2356.96 -778.079 2355.05 -770.109 2353.07 -761.897C2348.39 -742.443 2343.82 -722.966 2339.26 -703.484C2369.95 -702.304 2400.59 -701.451 2431.29 -700.777C2439.86 -700.414 2448.43 -700.052 2457.26 -699.678C2529.35 -698.496 2584.71 -715.689 2639.84 -763.24C2731.81 -854.733 2733.72 -986.296 2742.15 -1107.73C2748.89 -1197.69 2766.95 -1278.09 2794.02 -1364C2797.75 -1378.41 2801.43 -1392.83 2804.84 -1407.31C2783.11 -1407.31 2761.12 -1394.73 2741.23 -1387.01ZM834.224 -1212.41C844.056 -1140.72 888.161 -1096.63 944.361 -1053.66C974.85 -1033.59 974.85 -1033.59 1007.47 -1017.5C1014.61 -1021.07 1021.76 -1024.65 1029.12 -1028.33C992.023 -1097.09 955.951 -1159.29 888.362 -1201.58C858.503 -1211.78 858.503 -1211.78 834.224 -1212.41ZM2490.84 -1147.44C2465.72 -1116.85 2442.32 -1086.11 2425.88 -1049.98C2429.45 -1039.26 2433.03 -1028.54 2436.71 -1017.5C2517.97 -1062.47 2579.59 -1105.41 2620.78 -1190.75C2620.78 -1197.9 2620.78 -1205.04 2620.78 -1212.41C2560.8 -1212.41 2533.58 -1187.65 2490.84 -1147.44ZM1711.26 -1125.78C1686.25 -1075.76 1661.24 -1025.73 1635.47 -974.188C1671.44 -943.877 1671.44 -943.877 1711.26 -920.047C1752.1 -927.117 1774.27 -940.4 1808.71 -963.359C1791.97 -1022.69 1763.71 -1072.88 1732.91 -1125.78C1725.77 -1125.78 1718.62 -1125.78 1711.26 -1125.78ZM520.224 -1017.5C516.704 -1001.37 513.839 -985.101 511.427 -968.773C501.954 -922.452 501.954 -922.452 472.853 -901.774C440.679 -897.944 427.737 -902.302 401.121 -920.047C383.527 -907.907 383.527 -907.907 368.638 -887.562C365.926 -853.719 365.926 -853.719 368.638 -822.594C386.503 -819.021 404.369 -815.447 422.776 -811.766C427.653 -749.576 417.961 -729.019 379.466 -681.828C380.889 -652.037 380.889 -652.037 390.293 -627.688C404.586 -624.114 418.878 -620.541 433.603 -616.859C436.479 -626.644 439.354 -636.429 442.316 -646.51C446.141 -659.281 449.965 -672.053 453.905 -685.212C457.674 -697.9 461.442 -710.588 465.325 -723.66C476.914 -757.625 476.914 -757.625 498.569 -790.109C489.86 -796.586 481.15 -803.062 472.177 -809.735C444.431 -833.422 444.431 -833.422 433.603 -865.906C462.188 -862.333 490.773 -858.76 520.224 -855.078C523.755 -863.955 527.287 -872.833 530.925 -881.979C535.656 -893.648 540.388 -905.317 545.263 -917.34C549.911 -928.897 554.559 -940.454 559.347 -952.362C572.696 -981.391 586.576 -1003.84 606.845 -1028.33C595.442 -1042.08 595.442 -1042.08 569.625 -1041.19C540.067 -1042.06 540.067 -1042.06 520.224 -1017.5ZM2848.16 -1039.16C2844.64 -1005.75 2844.64 -1005.75 2867.78 -983.662C2898.23 -943.647 2910.18 -902.946 2923.95 -855.078C2966.83 -860.438 2966.83 -860.438 3010.57 -865.906C2980.79 -813.119 2980.79 -813.119 2956.43 -800.938C2963.33 -771.15 2972.25 -743.402 2983.5 -714.989C2995.95 -682.494 3005.18 -651.378 3010.57 -616.859C3032.01 -622.219 3032.01 -622.219 3053.88 -627.688C3063.28 -652.037 3063.28 -652.037 3064.71 -681.828C3050.33 -699.92 3035.89 -717.965 3021.4 -735.969C3018.69 -771.837 3018.69 -771.837 3021.4 -800.938C3030.11 -803.171 3038.82 -805.404 3047.79 -807.705C3056.94 -812.618 3066.1 -817.532 3075.53 -822.594C3085.26 -855.649 3085.26 -855.649 3086.36 -887.562C3059.56 -903.642 3059.56 -903.642 3032.22 -920.047C3028.65 -916.474 3025.08 -912.9 3021.4 -909.219C2996.14 -908.776 2970.86 -908.759 2945.6 -909.219C2943.64 -920.567 2943.64 -920.567 2941.63 -932.144C2939.81 -941.998 2938 -951.853 2936.13 -962.006C2934.37 -971.804 2932.61 -981.603 2930.8 -991.699C2925.78 -1019.29 2925.78 -1019.29 2902.29 -1039.16C2874.32 -1040.96 2874.32 -1040.96 2848.16 -1039.16ZM1429.74 -1017.5C1429.52 -999.857 1429.29 -982.214 1429.06 -964.036C1428.94 -954.112 1428.81 -944.188 1428.68 -933.963C1426.93 -909.588 1426.93 -909.588 1440.57 -898.391C1458.61 -897.951 1476.67 -897.928 1494.71 -898.391C1501.85 -916.257 1509 -934.123 1516.36 -952.531C1487.78 -973.971 1459.19 -995.411 1429.74 -1017.5ZM1963.68 -982.985C1935.34 -955.266 1935.34 -955.266 1939.31 -922.754C1947.08 -896.633 1947.08 -896.633 1971.12 -887.562C1985.41 -894.709 1999.71 -901.856 2014.43 -909.219C2014.43 -941.378 2014.43 -973.538 2014.43 -1006.67C1989.32 -1008.95 1989.32 -1008.95 1963.68 -982.985ZM628.5 -909.219C614.183 -880.583 616.625 -858.569 616.996 -826.654C617.093 -815.795 617.191 -804.935 617.292 -793.747C617.417 -785.4 617.543 -777.053 617.672 -768.453C611.029 -765.689 604.385 -762.926 597.54 -760.078C571.367 -745.081 563.701 -733.97 550 -707.545C540.621 -689.455 540.621 -689.455 531.052 -671C538.575 -674.099 546.098 -677.197 553.849 -680.39C586.775 -693.277 619.961 -704.596 653.539 -715.666C665.109 -719.491 676.68 -723.315 688.602 -727.255C697.353 -730.131 706.104 -733.006 715.121 -735.969C711.464 -743.939 707.807 -751.909 704.039 -760.121C699.21 -770.687 694.381 -781.253 689.405 -792.14C684.632 -802.566 679.858 -812.993 674.94 -823.736C662.355 -851.996 650.596 -880.413 639.328 -909.219C635.754 -909.219 632.181 -909.219 628.5 -909.219ZM2804.84 -909.219C2800.28 -898.527 2795.72 -887.835 2791.01 -876.819C2785.02 -862.804 2779.03 -848.79 2773.04 -834.775C2770.03 -827.727 2767.02 -820.678 2763.92 -813.415C2741.11 -760.078 2741.11 -760.078 2729.05 -735.969C2749.8 -728.955 2770.55 -721.967 2791.31 -714.989C2802.87 -711.095 2814.42 -707.201 2826.33 -703.188C2851.59 -695.04 2876.46 -687.786 2902.29 -681.828C2891.67 -713.71 2885.11 -732.445 2858.31 -753.564C2828.03 -790.684 2831.07 -825.989 2829.46 -872.801C2828 -885.468 2828 -885.468 2826.5 -898.391C2819.35 -901.964 2812.21 -905.537 2804.84 -909.219ZM1148.22 -898.391C1153.12 -877.621 1158.1 -856.871 1163.11 -836.129C1165.88 -824.572 1168.64 -813.014 1171.49 -801.107C1179.36 -773.233 1188.31 -750.305 1202.36 -725.141C1236.19 -722.834 1260.99 -722.399 1292.37 -735.969C1320.66 -769.506 1318.63 -800.962 1321.47 -844.25C1264.57 -870.881 1209.85 -886.512 1148.22 -898.391ZM1592.16 -887.562C1574.29 -858.976 1556.42 -830.39 1538.02 -800.938C1495.14 -804.511 1452.26 -808.084 1408.09 -811.766C1405.63 -791.219 1403.17 -770.673 1400.64 -749.504C1392.18 -713.636 1392.18 -713.636 1375.6 -681.828C1330.48 -657.214 1285.33 -646.87 1234.84 -638.516C1238.42 -595.636 1241.99 -552.757 1245.67 -508.578C1202.8 -481.779 1202.8 -481.779 1159.05 -454.438C1170.68 -424.015 1182.97 -396.274 1198.98 -367.812C1215.4 -330.28 1216.24 -319.136 1202.36 -281.188C1188.54 -255.541 1173.77 -230.548 1159.05 -205.391C1159.05 -198.244 1159.05 -191.098 1159.05 -183.734C1171.11 -176.588 1183.17 -169.441 1195.59 -162.078C1205.77 -156.048 1205.77 -156.048 1216.15 -149.896C1234.57 -138.79 1234.57 -138.79 1256.5 -140.422C1248.04 -108.699 1248.04 -108.699 1239.58 -76.9758C1233.4 -50.6674 1233.4 -50.6674 1234.84 -10.4844C1243.85 -8.48828 1252.85 -6.49243 1262.13 -4.43579C1356.95 20.8733 1356.95 20.8733 1379.88 55.8801C1387.49 80.6091 1392.34 104.905 1397.26 130.281C1404.03 144.933 1411.14 159.45 1418.91 173.594C1430.53 170.021 1442.14 166.447 1454.1 162.766C1494.71 151.938 1494.71 151.938 1538.02 151.938C1552.31 180.524 1566.6 209.11 1581.33 238.562C1618.14 234.1 1642.25 224.138 1672.69 204.048C1711.26 184.422 1711.26 184.422 1745.09 190.513C1776.22 206.078 1776.22 206.078 1805.32 223.674C1830.16 241.33 1830.16 241.33 1862.84 238.562C1878.76 219.426 1878.76 219.426 1891.94 195.25C1900.21 180.957 1908.47 166.664 1916.98 151.938C1975.94 162.657 1975.94 162.657 2036.09 173.594C2037.58 163.935 2039.07 154.276 2040.61 144.324C2049.59 102.927 2058.79 69.9658 2079.4 32.8281C2124.62 7.72559 2169.27 -2.61621 2220.16 -10.4844C2209.44 -53.3638 2198.72 -96.2432 2187.67 -140.422C2205.54 -147.568 2223.4 -154.715 2241.81 -162.078C2256.32 -169.14 2270.79 -176.304 2285.12 -183.734C2279.82 -216.838 2269.68 -234.368 2251.28 -263.592C2234.68 -292.008 2230.98 -301.803 2230.98 -336.005C2243.64 -373.175 2261.88 -401.288 2285.12 -432.781C2272.83 -468.422 2263.54 -476.05 2229.63 -495.043C2219.36 -499.51 2209.08 -503.976 2198.5 -508.578C2203.94 -548.957 2209.78 -588.289 2220.16 -627.688C2213.75 -629.656 2207.34 -631.624 2200.74 -633.651C2174.53 -641.989 2148.63 -650.979 2122.71 -660.172C2112.43 -663.745 2102.16 -667.318 2091.58 -671C2051.68 -708.553 2047.8 -759.346 2036.09 -811.766C1993.21 -808.192 1950.33 -804.619 1906.16 -800.938C1891.86 -829.524 1877.57 -858.11 1862.84 -887.562C1832.54 -875.975 1805.11 -863.841 1776.9 -847.634C1736.42 -830.282 1720.71 -831.67 1678.78 -844.25C1649.13 -857.572 1620.86 -872.218 1592.16 -887.562ZM2285.12 -898.391C2231.52 -880.524 2177.93 -862.658 2122.71 -844.25C2125.39 -828.617 2128.07 -812.984 2130.83 -796.877C2132.33 -788.083 2133.84 -779.29 2135.4 -770.23C2142.41 -745.72 2142.41 -745.72 2162.8 -732.839C2193.59 -723.308 2220.6 -723.684 2252.64 -725.141C2260.2 -747.887 2267.62 -770.68 2274.97 -793.493C2279.12 -806.181 2283.26 -818.869 2287.53 -831.941C2299.17 -865.913 2299.17 -865.913 2285.12 -898.391ZM473.742 -506.717C390.134 -427.606 298.279 -374.93 195.397 -324.5C220.61 -299.286 243.499 -289.898 275.927 -275.097C348.513 -239.407 404.916 -192.665 466.086 -140.422C490.21 -120.709 514.63 -101.408 539.172 -82.2207C550.283 -73.4271 561.393 -64.6334 572.839 -55.5734C643.399 -6.95117 717.936 19.4736 804.152 7.95728C879.525 -11.7179 934.052 -62.3081 985.81 -118.766C999.549 -142.065 999.549 -142.065 1007.47 -162.078C981.025 -178.039 954.552 -193.928 927.95 -209.62C911.148 -219.801 894.545 -230.359 878.55 -241.766C851.738 -260.232 830.666 -270.769 797.85 -268.921C758.414 -261.009 733.162 -255.917 704.293 -227.047C700.684 -189.148 700.684 -189.148 704.293 -151.25C711.439 -144.103 718.586 -136.957 725.948 -129.594C753.608 -128.806 753.608 -128.806 780.086 -140.422C794.971 -167.236 794.971 -167.236 801.741 -194.562C808.888 -194.562 816.034 -194.562 823.397 -194.562C809.502 -107.354 809.502 -107.354 784.823 -74.7764C743.262 -58.7903 704.757 -56.3517 660.983 -64.625C633.237 -85.6045 633.237 -85.6045 617.672 -118.766C614.432 -151.611 615.094 -183.349 617.672 -216.219C608.893 -217.028 600.114 -217.838 591.069 -218.672C500.728 -229.4 434.4 -254.033 357.81 -302.844C359.587 -322.385 359.587 -322.385 368.638 -346.156C443.813 -398.706 527.561 -422.492 617.672 -432.781C617.107 -442.58 617.107 -442.58 616.53 -452.576C615.253 -490.301 614.476 -521.709 627.823 -557.305C664.563 -584.026 702.881 -587.367 747.603 -584.375C783.191 -567.354 796.824 -552.65 812.188 -516.445C820.444 -492.325 827.746 -468.26 834.224 -443.609C812.569 -465.266 790.914 -486.922 769.259 -508.578C742.19 -510.383 742.19 -510.383 715.121 -508.578C699.997 -495.911 699.997 -495.911 702.94 -460.528C701.558 -423.674 701.558 -423.674 715.121 -400.297C766.607 -377.005 801.159 -377.835 855.879 -389.469C885.724 -402.125 913.659 -417.454 941.823 -433.458C949.228 -437.541 956.632 -441.624 964.261 -445.83C982.33 -455.813 1000.32 -465.939 1018.29 -476.094C978.84 -547.762 921.482 -597.589 851.142 -638.516C698.365 -681.403 582.323 -609.57 473.742 -506.717ZM2458.36 -530.234C2444.69 -501.688 2444.69 -501.688 2436.71 -476.094C2463.63 -459.332 2490.68 -442.938 2517.91 -426.69C2529.22 -419.582 2529.22 -419.582 2540.75 -412.33C2598.3 -378.491 2631.38 -374.224 2696.57 -389.469C2724.5 -399.565 2724.5 -399.565 2739.88 -421.953C2744.39 -460.761 2744.39 -460.761 2739.88 -497.75C2728.58 -511.159 2728.58 -511.159 2704.01 -512.639C2672.15 -511.324 2672.15 -511.324 2649.88 -481.508C2643.85 -472.575 2637.82 -463.641 2631.6 -454.438C2635.49 -532.169 2635.49 -532.169 2664.09 -568.81C2709.83 -590.731 2745.84 -587.658 2794.02 -573.547C2816.35 -557.305 2816.35 -557.305 2826.5 -530.234C2828.87 -497.548 2828.39 -465.48 2826.5 -432.781C2834.62 -431.846 2842.75 -430.911 2851.12 -429.947C2945.64 -416.971 3018.07 -388.074 3097.19 -335.328C3077.23 -285.164 3047.07 -272.265 2999.95 -249.845C2943.72 -229.259 2885.81 -222.448 2826.5 -216.219C2828.96 -204.829 2831.41 -193.439 2833.94 -181.704C2837.72 -135.691 2832.42 -122.031 2804.84 -86.2812C2783.19 -64.625 2783.19 -64.625 2741.91 -60.5645C2696.74 -61.55 2674.28 -75.1228 2642.43 -107.938C2627.77 -137.269 2630.9 -162.179 2631.6 -194.562C2638.75 -194.562 2645.9 -194.562 2653.26 -194.562C2654.38 -187.863 2655.49 -181.163 2656.64 -174.26C2662.74 -147.295 2662.74 -147.295 2696.57 -129.594C2707.29 -129.594 2718.01 -129.594 2729.05 -129.594C2745.06 -161.609 2740.53 -191.772 2739.88 -227.047C2722.8 -238.102 2722.8 -238.102 2705.37 -249.38C2698.96 -253.525 2692.55 -257.671 2685.95 -261.942C2655.43 -273.691 2641.21 -269.404 2609.95 -259.531C2581.27 -246.57 2553.67 -231.94 2526.03 -216.896C2518.62 -212.994 2511.21 -209.093 2503.58 -205.073C2463.3 -185.433 2463.3 -185.433 2436.71 -151.25C2500.6 -72.9855 2560.5 -6.38623 2664.09 11.1719C2806.72 13.0425 2895.44 -65.8477 2997.71 -156.622C3076.74 -225.672 3153.09 -270.924 3248.78 -313.672C3221.2 -345.621 3190.31 -360.238 3152.68 -378.641C3069.84 -422.143 3004.63 -479.485 2934.78 -541.062C2854.49 -607.996 2776.42 -658.182 2668.48 -652.685C2580.02 -641.339 2517.16 -596.842 2458.36 -530.234ZM1039.95 -595.203C1057.81 -573.763 1075.68 -552.324 1094.09 -530.234C1111.95 -537.381 1129.82 -544.527 1148.22 -551.891C1144.65 -573.33 1141.08 -594.77 1137.4 -616.859C1098.14 -619.04 1073.89 -615.319 1039.95 -595.203ZM2306.78 -616.859C2303.2 -595.42 2299.63 -573.98 2295.95 -551.891C2322.75 -541.171 2322.75 -541.171 2350.09 -530.234C2368.59 -547.813 2386.62 -565.893 2404.22 -584.375C2404.22 -591.522 2404.22 -598.668 2404.22 -606.031C2372.07 -609.604 2339.91 -613.178 2306.78 -616.859ZM977.69 -367.812C967.026 -361.783 956.363 -355.753 945.376 -349.54C937.281 -344.85 929.185 -340.16 920.845 -335.328C936.635 -293.987 956.21 -280.481 995.284 -260.885C1004.64 -255.999 1013.99 -251.114 1023.62 -246.081C1050.23 -235.277 1050.23 -235.277 1074.55 -245.235C1097.1 -260.016 1097.1 -260.016 1115.74 -292.016C1119.63 -328.529 1119.42 -350 1102.21 -382.701C1060.22 -421.688 1019.63 -391.779 977.69 -367.812ZM2360.91 -400.297C2334.94 -369.848 2328.14 -353.181 2329.78 -312.995C2339.25 -281.226 2349.95 -262.511 2371.74 -237.875C2431.07 -254.609 2481.25 -282.87 2534.16 -313.672C2498.23 -355.592 2455.71 -381.392 2404.22 -400.297C2389.93 -400.297 2375.64 -400.297 2360.91 -400.297ZM455.259 -324.5C494.771 -284.986 535.916 -290.247 589.25 -289.985C603.403 -289.832 617.556 -289.678 632.137 -289.52C668.973 -291.837 693.106 -297.631 725.948 -313.672C716.35 -338.962 716.35 -338.962 683.315 -347.51C601.39 -368.539 530.023 -363.509 455.259 -324.5ZM2707.4 -324.5C2759.34 -297.631 2798.95 -290.296 2857.63 -289.985C2877.35 -289.755 2877.35 -289.755 2897.47 -289.52C2933.08 -291.902 2957.01 -298.327 2988.91 -313.672C2960.09 -345.244 2938.89 -355.833 2895.4 -359.184C2824.32 -360.276 2772.08 -354.354 2707.4 -324.5ZM1094.09 -107.938C1072.65 -82.9246 1051.21 -57.9116 1029.12 -32.1406C1046.94 -31.8496 1064.76 -31.6388 1082.58 -31.4639C1097.47 -31.2754 1097.47 -31.2754 1112.65 -31.0833C1137.03 -29.3308 1137.03 -29.3308 1148.22 -42.9688C1148.66 -61.0103 1148.69 -79.0685 1148.22 -97.1094C1130.36 -100.683 1112.49 -104.256 1094.09 -107.938ZM2317.6 -107.938C2310.46 -100.791 2303.31 -93.6444 2295.95 -86.2812C2299.42 -58.0978 2299.42 -58.0978 2306.78 -32.1406C2342.51 -32.1406 2378.24 -32.1406 2415.05 -32.1406C2407.01 -44.6471 2398.97 -57.1536 2390.69 -70.0391C2386.17 -77.074 2381.65 -84.1089 2376.99 -91.3569C2371.68 -96.8285 2366.38 -102.3 2360.91 -107.938C2346.62 -107.938 2332.33 -107.938 2317.6 -107.938ZM393.677 -19.2822C376.615 -0.0310059 376.615 -0.0310059 380.819 27.4141C387.946 54.8718 387.946 54.8718 407.211 69.373C432.21 97.6343 424.817 126.7 422.776 162.766C404.91 166.339 387.045 169.912 368.638 173.594C364.12 210.128 364.12 210.128 368.638 249.391C394.329 271.14 394.329 271.14 422.776 281.875C426.349 274.729 429.922 267.582 433.603 260.219C459.319 262.926 459.319 262.926 487.741 271.047C512.863 305.425 520.1 349.477 531.052 390.156C557.008 397.515 557.008 397.515 585.19 400.984C592.336 393.838 599.482 386.691 606.845 379.328C598.582 368.608 590.319 357.888 581.806 346.844C552.113 305.592 536.25 264.986 520.224 216.906C495.212 216.906 470.201 216.906 444.431 216.906C458.533 185.446 473.761 164.831 498.569 141.109C491.869 128.603 485.17 116.096 478.267 103.211C455.895 58.7817 444.005 16.4019 433.603 -32.1406C411.176 -34.2178 411.176 -34.2178 393.677 -19.2822ZM3010.57 -32.1406C3008.48 -23.3889 3006.38 -14.6371 3004.22 -5.62012C3001.41 5.95117 2998.59 17.5225 2995.68 29.4443C2992.92 40.876 2990.15 52.3079 2987.31 64.0859C2978.96 94.5925 2968.83 122.882 2956.43 151.938C2971.32 168.631 2971.32 168.631 2988.91 184.422C2996.06 184.422 3003.21 184.422 3010.57 184.422C3010.57 195.142 3010.57 205.862 3010.57 216.906C2981.98 216.906 2953.4 216.906 2923.95 216.906C2921.32 223.969 2918.7 231.032 2916 238.309C2894.67 293.917 2872.68 342.181 2837.33 390.156C2862.81 397.604 2862.81 397.604 2891.47 400.984C2925.29 383.336 2925.29 383.336 2931.1 356.657C2932.53 348.059 2933.97 339.46 2935.45 330.602C2943.38 284.1 2943.38 284.1 2967.26 260.219C2995.58 263.759 3017.51 269.102 3043.05 281.875C3043.05 274.729 3043.05 267.582 3043.05 260.219C3057.34 253.072 3071.64 245.926 3086.36 238.562C3082.79 217.123 3079.22 195.683 3075.53 173.594C3061.24 173.594 3046.95 173.594 3032.22 173.594C3024.1 139.756 3024.1 139.756 3021.4 97.7969C3035.43 75.8745 3049.84 54.1943 3064.71 32.8281C3063.38 2.55688 3063.38 2.55688 3053.88 -21.3125C3039.59 -24.8857 3025.29 -28.4591 3010.57 -32.1406ZM541.879 32.8281C545.717 67.3721 552.215 75.7344 579.776 98.4736C615.093 139.973 613.727 170.022 615.092 223.124C615.061 251.36 615.061 251.36 639.328 271.047C642.077 263.077 644.827 255.107 647.66 246.895C651.386 236.329 655.113 225.762 658.953 214.876C662.595 204.449 666.238 194.022 669.992 183.28C682.417 152.484 697.289 125.747 715.121 97.7969C702.168 93.1069 689.216 88.417 675.871 83.585C636.992 69.1082 600.642 51.3828 563.534 32.8281C556.388 32.8281 549.242 32.8281 541.879 32.8281ZM2844.77 53.1309C2810.1 68.9019 2775.41 84.041 2739.88 97.7969C2742.98 105.432 2746.08 113.067 2749.27 120.934C2761.59 152.068 2773.16 183.388 2784.54 214.876C2788.37 225.442 2792.19 236.009 2796.13 246.895C2799.01 254.865 2801.88 262.835 2804.84 271.047C2832.78 243.107 2828.89 230.591 2829.88 191.866C2833.05 146.934 2834.05 134.227 2863.72 98.4736C2872.88 91.1038 2882.03 83.7339 2891.47 76.1406C2905.49 52.6846 2905.49 52.6846 2913.12 32.8281C2885.82 32.8281 2869.55 41.7197 2844.77 53.1309ZM789.233 138.875C723.533 217.456 718.193 326.125 710.384 423.994C699.428 541.03 678.795 647.704 639.328 758.312C645.872 756.164 652.416 754.015 659.159 751.801C724.93 731.023 788.908 717.725 857.233 708.909C867.04 707.554 876.848 706.199 886.953 704.804C932.971 698.523 978.988 692.778 1025.19 688.014C1103.72 679.787 1167.53 671.56 1234.84 628.375C1244.67 622.122 1254.5 615.868 1264.62 609.426C1317.62 556.426 1342.21 489.402 1344.18 415.365C1344.11 400.646 1343.98 385.926 1343.8 371.207C1343.75 363.656 1343.7 356.104 1343.65 348.324C1343.52 329.783 1343.33 311.243 1343.12 292.703C1210.1 316.278 1210.1 316.278 1094.09 377.298C1079.66 408.848 1072.43 430.954 1072.43 465.953C1094.55 498.9 1094.55 498.9 1126.57 520.094C1151.2 519.607 1151.2 519.607 1169.88 509.266C1180.8 463.393 1180.8 463.393 1170.56 418.58C1166.76 412.773 1162.96 406.967 1159.05 400.984C1222.46 462.771 1222.46 462.771 1227.4 507.235C1223.24 549.663 1210.02 565.712 1180.71 595.891C1147.23 612.629 1120.13 609.898 1083.26 606.719C1057.65 586.502 1043.63 570.763 1029.12 541.75C995.772 557.697 964.964 576.197 933.703 595.891C874.481 631.652 828.622 650.031 758.431 650.031C749.123 542.984 799.764 459.217 866.707 379.328C858.221 374.862 849.735 370.395 840.991 365.793C810.748 345.63 800.52 338.115 790.914 303.531C792.365 262.899 796.594 236.1 817.983 201.341C858.597 175.956 895.84 178.61 942.5 184.422C975.659 195.25 975.659 195.25 996.638 206.078C996.638 216.798 996.638 227.518 996.638 238.562C984.802 234.542 972.966 230.523 960.772 226.381C947.596 223.254 934.42 220.128 920.845 216.906C910.125 224.053 899.406 231.199 888.362 238.562C883.661 269.118 884.557 285.988 899.866 313.006C933.578 332.582 959.774 322.767 996.638 314.359C1023.7 304.102 1036.66 298.547 1051 273.04C1054.85 261.375 1054.85 261.375 1058.77 249.475C1061.61 240.947 1064.45 232.418 1067.38 223.632C1070.16 214.712 1072.95 205.793 1075.81 196.604C1080.31 183.35 1080.31 183.35 1084.89 169.829C1103.79 112.725 1103.79 112.725 1094.09 54.4844C975.509 49.5359 878.024 52.4441 789.233 138.875ZM2339.26 76.1406C2348.31 111.679 2357.94 147.036 2367.68 182.392C2370.24 192.448 2372.79 202.505 2375.42 212.867C2391.86 273.752 2391.86 273.752 2437.21 315.501C2479.86 328.781 2479.86 328.781 2523.33 325.188C2548.62 299.215 2548.62 299.215 2566.64 271.047C2553.86 237.775 2553.86 237.775 2525.36 218.26C2494.88 216.518 2474.86 225.659 2447.53 238.562C2470.26 209.232 2487.92 187.163 2525.44 179.685C2562.49 178.707 2591.67 181.442 2626.19 195.25C2651.1 228.47 2655.31 263.1 2653.26 303.531C2635.58 346.338 2618.47 360.479 2577.47 379.328C2583.75 385.84 2583.75 385.84 2590.15 392.483C2661.44 470.302 2689.92 545.286 2696.57 650.031C2602.15 646.884 2513.76 615.851 2443.69 550.421C2437.81 543.986 2431.93 537.552 2425.88 530.922C2420.74 541.418 2415.61 551.915 2410.31 562.729C2381.27 597.448 2376.46 601.571 2334.52 608.072C2298.89 609.599 2285.51 606.912 2252.64 590.477C2224.22 554.957 2220.16 532.941 2220.16 487.609C2235.72 451.741 2235.72 451.741 2252.64 422.641C2252.64 415.494 2252.64 408.347 2252.64 400.984C2263.36 400.984 2274.08 400.984 2285.12 400.984C2281.32 408.801 2277.53 416.617 2273.62 424.671C2262.34 458.506 2264.65 475.5 2274.29 509.266C2292.16 512.839 2310.02 516.412 2328.43 520.094C2352.13 497.026 2352.13 497.026 2371.74 465.953C2370.07 425.035 2361.02 392.277 2339.26 357.672C2318.31 345.723 2318.31 345.723 2293.28 338.85C2284.22 336.009 2275.15 333.169 2265.81 330.242C2256.33 327.457 2246.84 324.673 2237.07 321.804C2227.63 318.81 2218.19 315.816 2208.46 312.731C2155.08 294.578 2155.08 294.578 2101.05 303.531C2093.8 460.859 2093.8 460.859 2167.37 593.86C2249.33 667.321 2337.85 678.769 2444.53 690.521C2491.87 695.94 2539.06 702.412 2586.26 708.909C2595.56 710.104 2604.86 711.298 2614.44 712.528C2680.22 721.569 2741.8 737.587 2804.84 758.312C2802.56 750.838 2800.28 743.363 2797.92 735.662C2789.22 707.161 2780.58 678.679 2772.36 650.031C2768.64 637.05 2764.91 624.069 2761.07 610.695C2744.7 544.365 2742.81 476.133 2738.55 408.175C2730.03 292.739 2708.18 196.032 2624.16 112.009C2549.43 54.0889 2421.56 21.2681 2339.26 76.1406ZM1202.36 76.1406C1175.73 133.035 1160.1 187.763 1148.22 249.391C1207.44 238.39 1264.77 226.967 1321.47 206.078C1318.25 149.805 1318.25 149.805 1298.46 98.4736C1267.79 81.093 1237.04 79.4126 1202.36 76.1406ZM2144.36 97.7969C2137.22 133.53 2130.07 169.262 2122.71 206.078C2145.47 213.353 2168.26 220.559 2191.06 227.734C2210.09 233.764 2210.09 233.764 2229.5 239.916C2262.8 250.845 2262.8 250.845 2295.95 249.391C2284.07 187.763 2268.44 133.035 2241.81 76.1406C2207.67 76.1406 2176.9 88.1545 2144.36 97.7969ZM1429.74 260.219C1429.74 288.805 1429.74 317.391 1429.74 346.844C1444.03 346.844 1458.33 346.844 1473.05 346.844C1497.62 320.653 1497.62 320.653 1516.36 292.703C1509.22 278.41 1502.07 264.117 1494.71 249.391C1453.82 246.162 1453.82 246.162 1429.74 260.219ZM1960.29 249.391C1953.15 256.537 1946 263.684 1938.64 271.047C1937.11 297.828 1937.11 297.828 1949.47 325.188C1981.5 350.462 1981.5 350.462 2014.43 368.5C2014.43 332.767 2014.43 297.034 2014.43 260.219C1988.48 252.86 1988.48 252.86 1960.29 249.391ZM1635.47 325.188C1647.57 350.268 1659.76 375.298 1672.01 400.308C1675.44 407.447 1678.88 414.587 1682.41 421.943C1699.94 461.763 1699.94 461.763 1732.91 487.609C1757.93 434.01 1782.94 380.411 1808.71 325.188C1727.6 271.117 1710.03 270.957 1635.47 325.188ZM899.19 444.297C862.469 483.903 833.893 520.556 823.397 574.234C881.797 570.584 923.56 538.052 964.155 498.438C1003.58 443.369 1003.58 443.369 1018.29 379.328C973.055 379.328 933.319 417.152 899.19 444.297ZM2425.88 379.328C2446.42 453.662 2488.15 501.67 2544.98 552.578C2572.05 566.261 2590.4 570.357 2620.78 574.234C2604.8 503.224 2560.75 449.541 2502.26 407.498C2466.4 385.894 2466.4 385.894 2425.88 379.328ZM1473.05 455.125C1415.9 522.99 1391.58 583.555 1394.09 672.914C1406.11 791.349 1483.9 868.348 1559.67 953.219C1630.46 1033.71 1677.52 1116.43 1722.09 1213.09C1742.34 1182.71 1756.75 1153.4 1772.16 1120.38C1810.3 1043.54 1859.06 980.77 1917.83 918.577C1992.94 838.735 2049.22 755.617 2055.03 643.264C2049.72 540.012 1993.39 471.449 1920.45 402.93C1915.73 398.715 1911.02 394.499 1906.16 390.156C1856.36 406.756 1845.74 445.475 1822.24 490.316C1817.65 498.594 1813.06 506.871 1808.33 515.399C1782.5 563.179 1782.5 563.179 1777.92 616.193C1789.43 645.2 1800.28 668.583 1819.53 693.344C1845.45 705.927 1845.45 705.927 1873.67 704.172C1898.63 689.754 1898.63 689.754 1916.98 671.688C1911.87 625.687 1884.86 604.554 1852.02 574.234C1894.84 582.799 1928.65 589.65 1965.71 612.81C1990.18 652.584 1987.07 691.097 1981.95 736.656C1978.38 747.376 1974.8 758.096 1971.12 769.141C1950.27 777.431 1950.27 777.431 1924.43 782.676C1915.98 784.518 1907.54 786.361 1898.84 788.259C1872.84 790.88 1855.07 787.885 1830.36 779.969C1829.43 788.874 1828.49 797.779 1827.53 806.955C1817.25 888.641 1801.64 960.158 1754.57 1029.02C1722.09 1050.67 1722.09 1050.67 1700.43 1050.67C1696.41 1039.95 1696.41 1039.95 1692.31 1029.02C1680.31 998.407 1680.31 998.407 1668.46 978.217C1632.96 914.78 1622.88 851.59 1613.81 779.969C1606.5 780.597 1599.18 781.225 1591.65 781.872C1513.65 785.817 1513.65 785.817 1476.44 758.989C1457.13 713.939 1458.43 675.117 1473.05 628.375C1504.62 587.009 1543.28 584.651 1592.16 574.234C1583.22 582.051 1574.29 589.867 1565.09 597.921C1535.84 625.345 1535.84 625.345 1533.28 657.476C1535.96 684.528 1535.96 684.528 1559.67 704.172C1591.78 705.753 1591.78 705.753 1624.64 693.344C1652.88 665.868 1652.88 665.868 1667.95 628.375C1665.02 565.042 1643.7 520.421 1613.13 466.63C1609.05 459.225 1604.97 451.82 1600.76 444.191C1590.78 426.121 1580.65 408.13 1570.5 390.156C1529.71 390.156 1500.88 427.779 1473.05 455.125ZM1722.09 671.688C1687.44 748.197 1672.85 825.55 1699.29 907.411C1709.03 933.169 1709.03 933.169 1732.91 942.391C1771.82 880.176 1762.45 790.498 1749.66 720.71C1743.61 698.577 1743.61 698.577 1732.91 671.688C1729.34 671.688 1725.77 671.688 1722.09 671.688ZM1224.69 719.061C1215.44 723.834 1206.19 728.608 1196.65 733.526C1183.4 740.436 1183.4 740.436 1169.88 747.484C1155.46 754.732 1141.03 761.962 1126.57 769.141C1153.7 782.705 1173.42 780.732 1203.72 781.322C1273.11 786.534 1308.22 816.407 1353.95 866.594C1361.09 863.021 1368.24 859.447 1375.6 855.766C1371.82 847.67 1368.04 839.574 1364.14 831.233C1356.75 815.237 1356.75 815.237 1349.21 798.918C1344.31 788.366 1339.41 777.813 1334.37 766.941C1323.81 742.151 1316.08 719.615 1310.64 693.344C1273.55 693.344 1257.29 702.099 1224.69 719.061ZM2144.36 693.344C2135.53 714.081 2126.74 734.839 2117.97 755.605C2113.07 767.163 2108.17 778.72 2103.12 790.628C2093.04 816.15 2085.04 839.847 2079.4 866.594C2125.71 847.314 2125.71 847.314 2159 811.692C2176.84 790.797 2176.84 790.797 2205.31 784.96C2221.03 784.499 2221.03 784.499 2237.07 784.029C2282.77 784.526 2282.77 784.526 2317.6 758.312C2294.82 749.506 2272.04 740.71 2249.25 731.919C2236.57 727.02 2223.88 722.12 2210.81 717.073C2188.82 708.721 2166.67 700.781 2144.36 693.344ZM1018.29 790.797C1005.32 816.011 1005.32 816.011 996.638 844.938C1014.29 878.762 1014.29 878.762 1040.96 884.57C1049.56 886.008 1058.16 887.446 1067.02 888.927C1113.52 896.853 1113.52 896.853 1137.4 920.734C1144.16 949.158 1144.16 949.158 1148.22 974.875C1141.08 974.875 1133.93 974.875 1126.57 974.875C1138.68 1015.22 1138.68 1015.22 1169.88 1039.84C1188.03 1036.82 1206.11 1033.26 1224.02 1029.02C1224.02 1011.15 1224.02 993.283 1224.02 974.875C1285.85 970.025 1307.4 978.99 1353.95 1018.19C1382.4 1023.62 1382.4 1023.62 1408.09 1018.19C1415.23 1011.04 1422.38 1003.89 1429.74 996.531C1429.74 985.812 1429.74 975.092 1429.74 964.047C1420.99 961.953 1412.24 959.859 1403.22 957.702C1391.65 954.883 1380.08 952.063 1368.16 949.158C1356.73 946.395 1345.3 943.631 1333.52 940.783C1303.01 932.439 1274.73 922.305 1245.67 909.906C1240.98 916.83 1236.29 923.753 1231.46 930.886C1213.19 953.219 1213.19 953.219 1180.71 964.047C1180.71 935.461 1180.71 906.874 1180.71 877.422C1173.52 874.798 1166.33 872.174 1158.92 869.47C1105.38 849.144 1060.83 830.501 1018.29 790.797ZM2415.05 801.625C2394.36 811.493 2394.36 811.493 2373.77 826.665C2338.04 850.441 2305.17 865.952 2263.47 877.422C2259.89 906.008 2256.32 934.594 2252.64 964.047C2234.77 946.18 2216.91 928.314 2198.5 909.906C2186.11 914.261 2186.11 914.261 2173.46 918.704C2120.92 935.624 2067.75 949.815 2014.43 964.047C2019.82 993.894 2019.82 993.894 2036.09 1018.19C2061.32 1022.72 2061.32 1022.72 2090.22 1018.19C2098.71 1011.04 2107.2 1003.89 2115.94 996.531C2152.41 968.743 2175.42 971.366 2220.16 974.875C2220.16 992.741 2220.16 1010.61 2220.16 1029.02C2241.59 1032.59 2263.03 1036.16 2285.12 1039.84C2299.41 1021.98 2313.71 1004.11 2328.43 985.703C2321.28 978.557 2314.14 971.41 2306.78 964.047C2310.84 935.623 2310.84 935.623 2317.6 909.906C2335.02 905.216 2335.02 905.216 2352.79 900.432C2397.27 888.359 2397.27 888.359 2436.71 866.594C2445.5 838.926 2445.5 838.926 2447.53 812.453C2436.82 808.88 2426.1 805.307 2415.05 801.625Z" fill="#EEE8C4"/>
</svg>
